<svg xmlns="http://www.w3.org/2000/svg" width="277" height="249" viewBox="0 0 277 249">
    <g fill="none" fill-rule="nonzero">
        <path stroke="#FFF" d="M214.058 108.388c30.777-4.875 58.226 35.07 61.3 89.215.764 13.464-.053 26.537-2.182 38.661l-53.314-25.63-5.804-102.246zm-10.552 19.753l5.85 102.169 53.043 25.65c-6.369 36.594-24.675 64.48-47.673 68.123-30.61 4.848-57.937-35.083-61.036-89.194-3.098-54.108 19.206-101.9 49.816-106.748z" opacity=".05"/>
        <path stroke="#FFF" d="M209.816 102.485c32.44-5.139 61.003 34.63 63.787 88.821.692 13.475-.277 26.573-2.62 38.73l-55.91-25.219-5.257-102.332zm-11.274 19.868l5.306 102.255 55.626 25.241c-7.01 36.695-26.515 64.772-50.757 68.611-32.264 5.11-60.699-34.646-63.509-88.803-2.81-54.153 21.07-102.194 53.334-107.304z" opacity=".1"/>
        <path stroke="#FFF" d="M205.573 96.582c34.105-5.402 63.782 34.19 66.276 88.427.62 13.487-.502 26.609-3.058 38.8l-58.509-24.808-4.709-102.42zm-11.994 19.982l4.76 102.341 58.21 24.833c-7.653 36.796-28.355 65.062-53.84 69.099-33.918 5.372-63.461-34.208-65.983-88.411-2.52-54.199 22.934-102.49 56.853-107.862z" opacity=".15"/>
        <path stroke="#FFF" d="M201.331 90.679c35.77-5.665 66.56 33.75 68.763 88.033.548 13.498-.726 26.644-3.496 38.87l-61.106-24.397-4.16-102.506zm-12.716 20.096l4.216 102.428 60.792 24.423c-8.294 36.899-30.194 65.354-56.922 69.588-35.573 5.634-66.223-33.771-68.456-88.02-2.233-54.244 24.797-102.784 60.37-108.419z" opacity=".2"/>
        <path stroke="#FFF" d="M197.09 84.776c37.432-5.929 69.336 33.31 71.25 87.64.475 13.509-.951 26.679-3.935 38.938l-63.702-23.985-3.614-102.593zm-13.438 20.21l3.671 102.515 63.374 24.014c-8.934 37-32.033 65.645-60.004 70.076-37.228 5.896-68.986-33.334-70.93-87.628-1.944-54.29 26.661-103.08 63.889-108.976z" opacity=".25"/>
        <path stroke="#FFF" d="M192.847 78.873c39.096-6.192 72.114 32.87 73.737 87.246.404 13.52-1.175 26.715-4.371 39.008l-66.3-23.574-3.066-102.68zm-14.159 20.325l3.127 102.6 65.957 23.605c-9.576 37.102-33.873 65.937-63.088 70.564-38.882 6.159-71.747-32.895-73.403-87.235-1.656-54.336 28.525-103.376 67.407-109.534z" opacity=".3"/>
        <path stroke="#FFF" d="M188.605 72.97c40.76-6.456 74.891 32.43 76.225 86.852.331 13.532-1.4 26.75-4.81 39.077l-68.897-23.162-2.518-102.767zm-14.88 20.44l2.582 102.686 68.54 23.196c-10.218 37.203-35.713 66.228-66.17 71.052-40.538 6.42-74.51-32.458-75.878-86.844-1.367-54.381 30.389-103.67 70.926-110.09z" opacity=".35"/>
        <path stroke="#FFF" d="M184.363 67.067c42.424-6.719 77.669 31.99 78.712 86.458a130.542 130.542 0 0 1-5.248 39.147l-71.494-22.751-1.97-102.854zm-15.601 20.554l2.036 102.773 71.123 22.787c-10.86 37.304-37.552 66.52-69.253 71.54-42.192 6.683-77.272-32.02-78.35-86.452-1.08-54.427 32.252-103.966 74.444-110.648z" opacity=".4"/>
        <path stroke="#FFF" d="M180.121 61.164c44.087-6.982 80.446 31.55 81.2 86.064.186 13.555-1.849 26.822-5.686 39.216l-74.092-22.34-1.422-102.94zm-16.323 20.668l1.492 102.86 73.706 22.377c-11.501 37.406-39.393 66.811-72.336 72.029-43.846 6.944-80.034-31.583-80.824-86.06-.79-54.473 34.116-104.261 77.962-111.206z" opacity=".45"/>
        <path stroke="#FFF" d="M175.88 55.261c45.75-7.246 83.223 31.11 83.685 85.67.116 13.567-2.072 26.857-6.123 39.286l-76.689-21.929-.874-103.027zm-17.045 20.782l.947 102.946 76.288 21.969c-12.142 37.508-41.232 67.102-75.419 72.517-45.5 7.206-82.796-31.146-83.297-85.669-.502-54.518 35.98-104.556 81.48-111.763z" opacity=".5"/>
        <path stroke="#FFF" d="M171.637 49.359c47.414-7.51 86.001 30.67 86.174 85.275.043 13.578-2.297 26.893-6.562 39.356l-79.286-21.518-.326-103.113zm-17.766 20.896l.403 103.031 78.87 21.56c-12.783 37.61-43.07 67.394-78.5 73.006-47.156 7.468-85.559-30.709-85.772-85.277-.213-54.564 37.844-104.852 85-112.32z" opacity=".55"/>
        <path stroke="#FFF" d="M167.395 43.456c49.078-7.774 88.778 30.23 88.661 84.881-.03 13.59-2.521 26.929-7 39.425l-81.883-21.106.222-103.2zm-18.487 21.01l-.143 103.118 81.454 21.15c-13.425 37.712-44.91 67.686-81.584 73.494-48.81 7.731-88.32-30.27-88.245-84.885.075-54.61 39.708-105.146 88.518-112.877z" opacity=".6"/>
        <path stroke="#FFF" d="M163.153 37.553c50.742-8.037 91.556 29.79 91.148 84.488-.101 13.6-2.746 26.964-7.437 39.494l-84.48-20.695.769-103.287zm-19.209 21.125l-.687 103.204 84.037 20.741c-14.067 37.813-46.751 67.977-84.667 73.982-50.465 7.993-91.083-29.833-90.719-84.493.364-54.656 41.572-105.442 92.036-113.434z" opacity=".65"/>
        <path stroke="#FFF" d="M158.91 31.65c52.406-8.3 94.334 29.35 93.637 84.094-.174 13.612-2.97 27-7.876 39.563l-87.078-20.283 1.318-103.374zm-19.93 21.239l-1.231 103.29 86.62 20.333c-14.709 37.914-48.591 68.268-87.75 74.47-52.12 8.255-93.845-29.396-93.193-84.102.653-54.7 43.436-105.736 95.555-113.991z" opacity=".7"/>
        <path stroke="#FFF" d="M154.669 25.747c54.069-8.564 97.11 28.91 96.123 83.7-.246 13.624-3.195 27.035-8.313 39.633l-89.676-19.872 1.866-103.461zM134.017 47.1l-1.776 103.377 89.202 19.924c-15.35 38.015-50.43 68.559-90.833 74.958-53.774 8.517-96.606-28.959-95.665-83.71.94-54.747 45.299-106.032 99.072-114.549z" opacity=".75"/>
        <path stroke="#FFF" d="M150.427 19.844c55.732-8.827 99.888 28.471 98.61 83.306-.318 13.635-3.419 27.07-8.751 39.702l-92.272-19.46 2.413-103.548zm-21.373 21.468l-2.322 103.463 91.785 19.514c-15.99 38.118-52.27 68.85-93.915 75.447-55.428 8.779-99.369-28.521-98.14-83.318 1.23-54.793 47.164-106.327 102.592-115.106z" opacity=".8"/>
        <path stroke="#FFF" d="M146.185 13.941c57.396-9.09 102.666 28.031 101.097 82.912-.39 13.647-3.643 27.106-9.189 39.772l-94.87-19.05 2.962-103.634zM124.09 35.523l-2.866 103.55 94.368 19.105c-16.632 38.219-54.11 69.142-96.999 75.935-57.082 9.04-102.13-28.084-100.612-82.927C19.499 96.348 67.008 44.564 124.09 35.523z" opacity=".85"/>
        <path stroke="#FFF" d="M141.943 8.038c59.06-9.354 105.443 27.591 103.585 82.518-.462 13.658-3.868 27.142-9.627 39.841l-97.467-18.638 3.509-103.72zm-22.816 21.696l-3.411 103.636 96.95 18.696c-17.273 38.321-55.949 69.434-100.08 76.424-58.738 9.303-104.894-27.647-103.087-82.535C11.306 91.07 60.39 39.037 119.127 29.735z" opacity=".9"/>
        <path fill="#FFF" d="M137.766 2.12c60.75-9.622 108.264 27.144 106.111 82.117-.535 13.67-4.096 27.178-10.072 39.912l-100.104-18.22 4.065-103.81zM114.218 23.93l-3.965 103.724 99.574 18.28c-17.925 38.424-57.817 69.73-103.212 76.92-60.418 9.569-107.698-27.202-105.598-82.137 2.1-54.93 52.783-107.217 113.2-116.787z" opacity=".899"/>
    </g>
</svg>
