<?xml version="1.0" encoding="UTF-8"?>
<svg width="80px" height="50px" viewBox="0 0 80 50" version="1.1" xmlns="http://www.w3.org/2000/svg" xmlns:xlink="http://www.w3.org/1999/xlink">
    <!-- Generator: Sketch 55.1 (78136) - https://sketchapp.com -->
    <title>logo-GA</title>
    <desc>Created with Sketch.</desc>
    <defs>
        <linearGradient x1="100%" y1="50%" x2="0%" y2="50%" id="linearGradient-1">
            <stop stop-color="#8F1CFF" offset="0%"></stop>
            <stop stop-color="#F81BEE" offset="100%"></stop>
        </linearGradient>
        <linearGradient x1="100%" y1="50%" x2="0%" y2="50%" id="linearGradient-2">
            <stop stop-color="#208DFF" offset="0%"></stop>
            <stop stop-color="#44FBFF" offset="100%"></stop>
        </linearGradient>
        <linearGradient x1="100%" y1="50%" x2="0%" y2="50%" id="linearGradient-3">
            <stop stop-color="#F80A52" offset="0%"></stop>
            <stop stop-color="#FA8400" offset="100%"></stop>
        </linearGradient>
        <linearGradient x1="-1.11022302e-14%" y1="50%" x2="100%" y2="50%" id="linearGradient-4">
            <stop stop-color="#FDD201" offset="0%"></stop>
            <stop stop-color="#F96B00" offset="100%"></stop>
        </linearGradient>
        <linearGradient x1="97.9936566%" y1="0%" x2="2.00634336%" y2="100%" id="linearGradient-5">
            <stop stop-color="#63BF3D" offset="0%"></stop>
            <stop stop-color="#ECE000" offset="100%"></stop>
        </linearGradient>
    </defs>
    <g id="desktop" stroke="none" stroke-width="1" fill="none" fill-rule="evenodd">
        <g id="catalog" transform="translate(-234.000000, -10.000000)">
            <g id="logo-GA" transform="translate(234.000000, 10.000000)">
                <g id="Group" transform="translate(30.000000, 15.000000)" fill="#51564B" fill-rule="nonzero">
                    <g id="Green-Apple" transform="translate(0.105263, 0.833333)">
                        <path d="M1.0658141e-14,5.57796419 C1.0658141e-14,2.48767932 2.46702321,0.0154514244 5.53538332,0.0154514244 C6.83057051,0.0154514244 8.24910885,0.556251277 9.29759371,1.46788531 C9.43636377,1.57604528 9.45178266,1.76146238 9.3284315,1.88507377 L8.11033879,3.18299342 C7.98698763,3.29115339 7.81737979,3.29115339 7.69402863,3.19844484 C7.10811062,2.65764499 6.42967923,2.45677647 5.67415338,2.45677647 C3.99349382,2.45677647 2.63663105,3.87830751 2.63663105,5.57796419 C2.63663105,7.26216945 4.00891271,8.65279764 5.68957227,8.65279764 C6.13672023,8.65279764 6.59928708,8.59099194 7.06185393,8.40557485 L7.06185393,7.50939224 L6.09046354,7.50939224 C5.9208557,7.50939224 5.79750454,7.38578084 5.79750454,7.2312666 L5.79750454,5.70157559 C5.79750454,5.53160992 5.9208557,5.40799853 6.09046354,5.40799853 L9.18966145,5.40799853 C9.3438504,5.40799853 9.46720156,5.54706135 9.46720156,5.70157559 L9.48262045,9.85800874 C9.48262045,9.93526586 9.42094487,10.0588773 9.35926929,10.1052315 C9.35926929,10.1052315 7.7711231,11.1095741 5.53538332,11.1095741 C2.46702321,11.1095741 1.0658141e-14,8.66824907 1.0658141e-14,5.57796419 Z M11.5950091,10.6769342 L11.5950091,0.448091306 C11.5950091,0.293577063 11.7183602,0.154514244 11.8879681,0.154514244 L16.4982177,0.154514244 C18.3484851,0.154514244 19.8595368,1.65330241 19.8595368,3.49202191 C19.8595368,4.91355295 18.9189842,6.05695835 17.5775404,6.5977582 L19.689929,10.52242 C19.7978612,10.7232885 19.689929,10.9705113 19.4278078,10.9705113 L17.3770947,10.9705113 C17.2537436,10.9705113 17.1612302,10.8932542 17.1303924,10.8314485 L15.0796794,6.73682102 L14.0157756,6.73682102 L14.0157756,10.6769342 C14.0157756,10.8314485 13.8770055,10.9705113 13.7228166,10.9705113 L11.8879681,10.9705113 C11.7183602,10.9705113 11.5950091,10.8314485 11.5950091,10.6769342 Z M14.0157756,4.77449013 L16.2977721,4.77449013 C16.9299468,4.77449013 17.4696081,4.187336 17.4696081,3.53837618 C17.4696081,2.88941636 16.9299468,2.36406793 16.2977721,2.36406793 L14.0157756,2.36406793 L14.0157756,4.77449013 Z M21.9256688,10.6769342 L21.9256688,0.448091306 C21.9256688,0.293577063 22.0490199,0.154514244 22.2186278,0.154514244 L28.6020503,0.154514244 C28.7716582,0.154514244 28.8950093,0.293577063 28.8950093,0.448091306 L28.8950093,2.13229656 C28.8950093,2.28681081 28.7716582,2.42587362 28.6020503,2.42587362 L24.3310164,2.42587362 L24.3310164,4.34185025 L27.8465245,4.34185025 C28.0007134,4.34185025 28.1394835,4.48091306 28.1394835,4.63542731 L28.1394835,6.31963256 C28.1394835,6.48959823 28.0007134,6.61320963 27.8465245,6.61320963 L24.3310164,6.61320963 L24.3310164,8.69915192 L28.6020503,8.69915192 C28.7716582,8.69915192 28.8950093,8.83821473 28.8950093,8.99272898 L28.8950093,10.6769342 C28.8950093,10.8314485 28.7716582,10.9705113 28.6020503,10.9705113 L22.2186278,10.9705113 C22.0490199,10.9705113 21.9256688,10.8314485 21.9256688,10.6769342 Z M30.9611413,10.6769342 L30.9611413,0.448091306 C30.9611413,0.293577063 31.0844924,0.154514244 31.2541003,0.154514244 L37.6375228,0.154514244 C37.8071307,0.154514244 37.9304818,0.293577063 37.9304818,0.448091306 L37.9304818,2.13229656 C37.9304818,2.28681081 37.8071307,2.42587362 37.6375228,2.42587362 L33.3664889,2.42587362 L33.3664889,4.34185025 L36.881997,4.34185025 C37.0361859,4.34185025 37.174956,4.48091306 37.174956,4.63542731 L37.174956,6.31963256 C37.174956,6.48959823 37.0361859,6.61320963 36.881997,6.61320963 L33.3664889,6.61320963 L33.3664889,8.69915192 L37.6375228,8.69915192 C37.8071307,8.69915192 37.9304818,8.83821473 37.9304818,8.99272898 L37.9304818,10.6769342 C37.9304818,10.8314485 37.8071307,10.9705113 37.6375228,10.9705113 L31.2541003,10.9705113 C31.0844924,10.9705113 30.9611413,10.8314485 30.9611413,10.6769342 Z M39.9966138,10.6769342 L39.9811949,0.278125638 C39.9811949,0.123611395 40.1199649,1.50990331e-14 40.2741539,1.50990331e-14 L40.6596262,1.50990331e-14 L46.8117654,5.93334695 C46.8117654,5.93334695 46.8271843,5.93334695 46.8271843,5.93334695 L46.8271843,0.448091306 C46.8271843,0.293577063 46.9505354,0.154514244 47.1201433,0.154514244 L48.9704107,0.154514244 C49.1245996,0.154514244 49.2633697,0.293577063 49.2633697,0.448091306 L49.2633697,10.8468999 C49.2633697,11.0014141 49.1245996,11.1250255 48.9704107,11.1250255 L48.7237083,11.1250255 C48.6774517,11.1250255 48.5541005,11.0786713 48.5232627,11.0477684 L42.4327992,4.91355295 C42.4327992,4.91355295 42.4173803,4.91355295 42.4173803,4.91355295 L42.4173803,10.6769342 C42.4173803,10.8314485 42.2940291,10.9705113 42.1244213,10.9705113 L40.2895728,10.9705113 C40.1353838,10.9705113 39.9966138,10.8314485 39.9966138,10.6769342 Z M7.75942592,27.8040751 C7.54219249,27.8040751 7.42633466,27.615409 7.51322803,27.4267428 L12.0461656,17.6596406 C12.0896123,17.5725639 12.1909879,17.5 12.2923635,17.5 L12.4371858,17.5 C12.5385614,17.5 12.639937,17.5725639 12.6833837,17.6596406 L17.2163212,27.4267428 C17.3032146,27.615409 17.1873568,27.8040751 16.9701233,27.8040751 L15.362596,27.8040751 C15.1019158,27.8040751 14.986058,27.7169984 14.855718,27.4412556 L14.3343577,26.2947458 L10.3951915,26.2947458 L9.8738313,27.4557684 C9.80142016,27.6299217 9.64211564,27.8040751 9.35247107,27.8040751 L7.75942592,27.8040751 Z M11.2641252,24.3210075 L13.465424,24.3210075 L12.3647746,21.9263985 L12.3502924,21.9263985 L11.2641252,24.3210075 Z M18.403864,27.5283323 L18.403864,17.9208707 C18.403864,17.7757429 18.5197218,17.6451278 18.6790263,17.6451278 L22.1692434,17.6451278 C23.9505575,17.6451278 25.4132626,19.096406 25.4132626,20.8524526 C25.4132626,22.6520376 23.9505575,24.1178285 22.1837256,24.1178285 L20.6630916,24.1178285 L20.6630916,27.5283323 C20.6630916,27.6734601 20.5327516,27.8040751 20.3879293,27.8040751 L18.6790263,27.8040751 C18.5197218,27.8040751 18.403864,27.6734601 18.403864,27.5283323 Z M20.6630916,21.9989624 L22.0389034,21.9989624 C22.6616392,21.9989624 23.1829994,21.5055278 23.1829994,20.8524526 C23.1829994,20.2429158 22.6616392,19.7785068 22.0389034,19.7785068 L20.6630916,19.7785068 L20.6630916,21.9989624 Z M26.9338966,27.5283323 L26.9338966,17.9208707 C26.9338966,17.7757429 27.0497545,17.6451278 27.209059,17.6451278 L30.6992761,17.6451278 C32.4805902,17.6451278 33.9432953,19.096406 33.9432953,20.8524526 C33.9432953,22.6520376 32.4805902,24.1178285 30.7137583,24.1178285 L29.1931243,24.1178285 L29.1931243,27.5283323 C29.1931243,27.6734601 29.0627843,27.8040751 28.917962,27.8040751 L27.209059,27.8040751 C27.0497545,27.8040751 26.9338966,27.6734601 26.9338966,27.5283323 Z M29.1931243,21.9989624 L30.568936,21.9989624 C31.1916719,21.9989624 31.7130321,21.5055278 31.7130321,20.8524526 C31.7130321,20.2429158 31.1916719,19.7785068 30.568936,19.7785068 L29.1931243,19.7785068 L29.1931243,21.9989624 Z M35.4639293,27.5283323 L35.4639293,17.9208707 C35.4639293,17.7757429 35.5797871,17.6451278 35.7390917,17.6451278 L37.4624769,17.6451278 C37.6072992,17.6451278 37.7376392,17.7757429 37.7376392,17.9208707 L37.7376392,25.6706962 L41.1844096,25.6706962 C41.3437141,25.6706962 41.459572,25.8013112 41.459572,25.946439 L41.459572,27.5283323 C41.459572,27.6734601 41.3437141,27.8040751 41.1844096,27.8040751 L35.7390917,27.8040751 C35.5797871,27.8040751 35.4639293,27.6734601 35.4639293,27.5283323 Z M42.8643481,27.5283323 L42.8643481,17.9208707 C42.8643481,17.7757429 42.980206,17.6451278 43.1395105,17.6451278 L49.1351532,17.6451278 C49.2944577,17.6451278 49.4103155,17.7757429 49.4103155,17.9208707 L49.4103155,19.5027639 C49.4103155,19.6478917 49.2944577,19.7785068 49.1351532,19.7785068 L45.1235758,19.7785068 L45.1235758,21.5780917 L48.4255239,21.5780917 C48.5703462,21.5780917 48.7006863,21.7087067 48.7006863,21.8538346 L48.7006863,23.4357278 C48.7006863,23.5953684 48.5703462,23.7114706 48.4255239,23.7114706 L45.1235758,23.7114706 L45.1235758,25.6706962 L49.1351532,25.6706962 C49.2944577,25.6706962 49.4103155,25.8013112 49.4103155,25.946439 L49.4103155,27.5283323 C49.4103155,27.6734601 49.2944577,27.8040751 49.1351532,27.8040751 L43.1395105,27.8040751 C42.980206,27.8040751 42.8643481,27.6734601 42.8643481,27.5283323 Z" id="Combined-Shape"></path>
                    </g>
                </g>
                <g id="Group-42" transform="translate(-0.000000, 0.000000)">
                    <path d="M2.26592689,41.7559659 C0.777942853,39.2139683 -0.00430216619,36.3207602 -1.42108547e-14,33.3752841 C-1.42108547e-14,33.3278409 0.00143825075,33.2806818 0.00186438712,33.2332386 L33.2368076,33.2332386 C33.2368076,33.2806818 33.238672,33.3278409 33.238672,33.3752841 C33.2429741,36.3207602 32.4607291,39.2139683 30.9727451,41.7559659 L2.26535871,41.7559659 L2.26592689,41.7559659 Z" id="Эллипс_1_копия_3-path" fill="url(#linearGradient-1)"></path>
                    <path d="M2.26592689,41.7559659 L30.9733133,41.7559659 C27.9932283,46.858322 22.528507,49.9951251 16.6196201,49.9951251 C10.7107332,49.9951251 5.24601183,46.858322 2.26592689,41.7559659 L2.26592689,41.7559659 Z" id="Эллипс_1_копия_3-path" fill="url(#linearGradient-2)"></path>
                    <path d="M33.2386542,33.2224432 L33.2386542,33.2332386 L1.77962069e-05,33.2332386 L1.77962069e-05,33.0911932 C1.77962069e-05,28.6195695 3.62498502,24.9946023 8.09660871,24.9946023 L22.6325462,24.9946023 C24.036544,29.7286492 28.3041953,33.0393412 33.2386542,33.2224432 Z" id="Эллипс_1_копия_3-path" fill="url(#linearGradient-3)"></path>
                    <path d="M22.1591087,21.7275568 C22.1589752,22.8336738 22.3184303,23.9340241 22.6325462,24.9946023 L1.77962069e-05,24.9946023 L1.77962069e-05,24.8525568 C1.77962069e-05,20.3809331 3.62498502,16.7559659 8.09660871,16.7559659 L23.2862394,16.7559659 C22.5420317,18.3075208 22.1567913,20.0067541 22.1591087,21.7275568 L22.1591087,21.7275568 Z" id="Эллипс_1_копия_3-path" fill="url(#linearGradient-4)"></path>
                    <path d="M16.6210405,13.4835227 C16.6210405,13.4615057 16.619336,13.4399148 16.619336,13.4178977 C16.6200474,6.08905628 22.4999347,0.115963875 29.8278587,0 C29.8278587,0.0220170455 29.8295633,0.0436079545 29.8295633,0.065625 C29.8288518,7.39446645 23.9489645,13.3675589 16.6210405,13.4835227 L16.6210405,13.4835227 Z" id="Эллипс_1_копия_3-path" fill="url(#linearGradient-5)"></path>
                </g>
            </g>
        </g>
    </g>
</svg>