<svg xmlns="http://www.w3.org/2000/svg" width="439" height="319" viewBox="0 0 439 319">
    <g fill="none" fill-rule="nonzero" stroke="#FFF">
        <path d="M438.271 248.594c-.43-1.38-1.49-2.548-3.207-3.5l-107.753-59.728c-1.745-.968-3.67-1.434-5.777-1.398-2.083.037-3.656.55-4.737 1.523l-13.332 12.01-17.15-9.506c-1.853-1.027-4.16-1.884-6.919-2.568-2.765-.684-5.217-1.006-7.362-.969l-34.312.59a21.16 21.16 0 0 0-4.308.515c-1.406.317-2.567.662-3.47 1.028-.89.362-1.924.972-3.095 1.83-1.233.904-2.08 1.542-2.593 1.955-.52.421-1.375 1.191-2.558 2.305a178.4 178.4 0 0 1-2.338 2.184l-22.044 19.857-.312-.173c-1.746-.968-3.668-1.434-5.778-1.397-2.08.035-3.654.548-4.735 1.522-.627.564-1.042 1.121-1.25 1.665-.188.487-.147.976.137 1.509.334.63.647 1.178.933 1.634.239.378.882.919 1.914 1.586 1.118.722 1.84 1.187 2.226 1.433.386.243 1.273.735 2.65 1.468 1.399.742 2.197 1.167 2.411 1.286l7.347 4.073-.52.469c-4.665 4.202-6.083 9.157-4.284 14.95 1.817 5.848 6.376 10.804 13.707 14.867 7.358 4.08 15.322 6.044 23.899 5.897 8.55-.147 15.172-2.35 19.883-6.594l.265-.238 41.334 22.911-.521.469c-4.665 4.202-6.082 9.157-4.284 14.95 1.816 5.847 6.375 10.803 13.706 14.867 7.36 4.08 15.32 6.043 23.9 5.897 8.55-.147 15.172-2.35 19.883-6.594l.265-.239.312.173c.214.119.995.568 2.34 1.347 1.336.772 2.224 1.264 2.65 1.47.44.211 1.272.606 2.503 1.189 1.184.56 2.098.878 2.73.959.683.087 1.512.171 2.497.254.913.077 1.73-.029 2.458-.315a6.707 6.707 0 0 0 2.07-1.296l69.695-62.78c1.035-.932 1.334-2.017.924-3.347zm0 0zm-206.048 7.458c-4.536.057-8.702-.963-12.484-3.059-3.811-2.112-6.236-4.766-7.246-7.959-1.028-3.245-.265-6.047 2.265-8.31 2.48-2.22 6.015-3.354 10.575-3.412 4.536-.057 8.7.964 12.484 3.06 3.811 2.113 6.237 4.767 7.246 7.958 1.029 3.246.265 6.049-2.265 8.313-2.481 2.22-6.015 3.352-10.575 3.409zm44.335-34.636l-41.305-22.896 2.566-2.32c.689-.624 1.62-.941 2.774-.965l33.821-.675a6.201 6.201 0 0 1 3.181.79l17.227 9.549-18.264 16.517zm49.396 86.881c-4.535.058-8.702-.962-12.483-3.058-3.812-2.113-6.238-4.768-7.247-7.96-1.028-3.245-.264-6.047 2.264-8.31 2.482-2.221 6.016-3.354 10.576-3.412 4.535-.057 8.701.964 12.485 3.061 3.81 2.113 6.236 4.766 7.246 7.957 1.026 3.248.263 6.05-2.265 8.313-2.483 2.222-6.015 3.353-10.576 3.41z" opacity=".05"/>
        <path d="M432.778 237.432c-.457-1.405-1.557-2.578-3.319-3.515l-110.6-58.808c-1.792-.952-3.76-1.388-5.906-1.307-2.123.08-3.72.64-4.808 1.66l-13.397 12.556-17.598-9.356c-1.903-1.012-4.265-1.84-7.085-2.481-2.826-.641-5.328-.92-7.513-.836l-34.932 1.326a21.528 21.528 0 0 0-4.381.617c-1.428.354-2.607.732-3.52 1.125-.903.39-1.949 1.035-3.129 1.938-1.242.95-2.096 1.62-2.613 2.054-.523.442-1.383 1.247-2.572 2.412a183.77 183.77 0 0 1-2.349 2.281l-22.153 20.764-.316-.168c-1.793-.953-3.758-1.389-5.907-1.306-2.12.079-3.718.637-4.807 1.658-.632.592-1.048 1.173-1.253 1.735-.186.506-.136 1.01.162 1.55.35.638.677 1.192.975 1.653.249.382.912.922 1.974 1.583 1.149.715 1.891 1.175 2.287 1.418.397.241 1.308.726 2.72 1.446 1.436.729 2.254 1.147 2.475 1.265l7.529 4.003-.51.478c-4.693 4.399-6.067 9.502-4.15 15.393 1.937 5.943 6.653 10.916 14.179 14.917 7.553 4.017 15.693 5.859 24.426 5.527 8.707-.33 15.42-2.723 20.16-7.164l.26-.245 42.409 22.55-.51.478c-4.693 4.399-6.067 9.502-4.149 15.393 1.934 5.942 6.65 10.915 14.177 14.917 7.554 4.016 15.69 5.857 24.426 5.527 8.708-.33 15.421-2.723 20.16-7.165l.26-.244.317.168c.22.116 1.02.56 2.401 1.328 1.373.76 2.284 1.245 2.72 1.447.453.207 1.305.593 2.568 1.163 1.213.547 2.149.854 2.795.923.697.075 1.542.144 2.547.208.932.06 1.763-.066 2.502-.375a6.9 6.9 0 0 0 2.094-1.37l70.057-65.664c1.045-.98 1.336-2.101.897-3.457zm0 0zm-209.724 11.96c-4.617.154-8.874-.801-12.755-2.865-3.91-2.08-6.417-4.74-7.492-7.982-1.092-3.292-.357-6.166 2.181-8.53 2.492-2.321 6.072-3.553 10.713-3.708 4.617-.154 8.872.801 12.754 2.866 3.91 2.079 6.419 4.74 7.492 7.98 1.093 3.293.358 6.169-2.18 8.533-2.493 2.321-6.072 3.552-10.713 3.705zm44.642-36.353l-42.38-22.534 2.566-2.415c.69-.649 1.631-.992 2.804-1.04l34.431-1.403a6.263 6.263 0 0 1 3.248.74l17.67 9.396-18.34 17.256zm51.57 87.803c-4.617.154-8.874-.8-12.755-2.864-3.911-2.08-6.42-4.743-7.492-7.983-1.093-3.292-.358-6.167 2.18-8.53 2.492-2.322 6.072-3.553 10.713-3.708 4.616-.154 8.872.802 12.755 2.866 3.91 2.08 6.419 4.74 7.492 7.98 1.09 3.295.356 6.17-2.181 8.533-2.493 2.322-6.071 3.553-10.712 3.706z" opacity=".1"/>
        <path d="M427.233 226.184c-.488-1.428-1.625-2.606-3.434-3.528l-113.447-57.804c-1.839-.937-3.849-1.342-6.034-1.214-2.161.127-3.78.732-4.876 1.8l-13.446 13.11-18.046-9.196c-1.952-.994-4.37-1.792-7.25-2.388-2.886-.597-5.438-.829-7.661-.698L217.5 168.35c-1.52.09-3.002.33-4.452.723-1.449.392-2.643.802-3.568 1.223-.914.418-1.97 1.1-3.158 2.049-1.251.997-2.11 1.7-2.63 2.154-.527.463-1.39 1.304-2.583 2.52a189.141 189.141 0 0 1-2.357 2.38l-22.238 21.68-.32-.162c-1.84-.937-3.848-1.342-6.035-1.213-2.159.125-3.779.73-4.875 1.8-.636.619-1.052 1.223-1.254 1.805-.183.525-.124 1.042.188 1.591.365.644.707 1.204 1.017 1.67.26.386.943.924 2.034 1.578 1.18.706 1.943 1.161 2.35 1.402.407.238 1.342.714 2.79 1.42 1.472.716 2.312 1.127 2.538 1.242l7.711 3.93-.5.486c-4.716 4.598-6.04 9.849-4 15.835 2.06 6.037 6.934 11.022 14.655 14.956 7.749 3.948 16.062 5.662 24.948 5.14 8.86-.519 15.66-3.105 20.421-7.746l.257-.25 43.484 22.156-.5.487c-4.716 4.598-6.04 9.849-4 15.835 2.058 6.035 6.933 11.022 14.654 14.956 7.75 3.948 16.06 5.66 24.948 5.14 8.86-.519 15.661-3.105 20.422-7.746l.256-.25.32.162c.225.115 1.047.551 2.464 1.307 1.408.75 2.343 1.226 2.79 1.423.464.202 1.337.58 2.63 1.135 1.245.535 2.202.829 2.861.886.71.062 1.572.115 2.596.16.95.04 1.797-.105 2.546-.436a7.093 7.093 0 0 0 2.114-1.448l70.342-68.578c1.053-1.027 1.334-2.186.866-3.567zm0 0zm-213.306 16.592c-4.696.254-9.042-.633-13.022-2.661-4.01-2.043-6.6-4.71-7.74-8-1.16-3.337-.456-6.284 2.089-8.75 2.5-2.42 6.123-3.754 10.842-4.01 4.697-.253 9.041.635 13.022 2.664 4.01 2.043 6.601 4.71 7.741 7.997 1.16 3.338.456 6.287-2.09 8.753-2.5 2.422-6.122 3.753-10.842 4.007zm44.902-38.09l-43.454-22.14 2.564-2.51c.69-.676 1.64-1.046 2.831-1.12l35.027-2.15a6.325 6.325 0 0 1 3.314.687l18.113 9.23-18.395 18.003zm53.79 88.674c-4.696.254-9.042-.633-13.021-2.66-4.012-2.045-6.603-4.713-7.742-8-1.159-3.338-.455-6.286 2.09-8.75 2.5-2.423 6.123-3.755 10.842-4.01 4.695-.254 9.041.634 13.023 2.663 4.01 2.043 6.601 4.71 7.74 7.997 1.158 3.34.454 6.289-2.09 8.753-2.5 2.422-6.122 3.754-10.842 4.007z" opacity=".15"/>
        <path d="M421.632 214.851c-.518-1.451-1.694-2.632-3.55-3.537l-116.291-56.72c-1.886-.92-3.938-1.292-6.16-1.116-2.2.175-3.84.827-4.942 1.944l-13.48 13.667-18.494-9.02c-2.001-.977-4.473-1.742-7.413-2.292-2.946-.55-5.547-.734-7.807-.555l-36.127 2.863a22.27 22.27 0 0 0-4.521.83c-1.469.431-2.678.875-3.614 1.325-.924.446-1.989 1.166-3.185 2.16-1.258 1.044-2.122 1.78-2.644 2.256-.53.483-1.396 1.361-2.591 2.628a194.539 194.539 0 0 1-2.363 2.481l-22.297 22.606-.323-.157c-1.887-.92-3.937-1.293-6.161-1.116-2.197.173-3.839.826-4.94 1.943-.64.648-1.056 1.275-1.253 1.876-.18.544-.112 1.075.216 1.632.381.651.737 1.217 1.06 1.685.27.39.974.927 2.095 1.573 1.212.697 1.994 1.146 2.412 1.384.418.235 1.376.702 2.86 1.394 1.509.7 2.369 1.103 2.6 1.216l7.894 3.85-.49.495c-4.733 4.8-6.003 10.198-3.836 16.276 2.187 6.128 7.221 11.123 15.137 14.983 7.944 3.875 16.429 5.454 25.463 4.738 9.01-.714 15.892-3.498 20.669-8.34l.252-.256 44.559 21.732-.49.496c-4.733 4.8-6.003 10.198-3.836 16.277 2.185 6.126 7.22 11.12 15.136 14.982 7.945 3.875 16.426 5.453 25.463 4.737 9.01-.713 15.893-3.497 20.67-8.34l.252-.256.323.158c.23.112 1.073.541 2.526 1.285 1.445.736 2.403 1.203 2.861 1.396.475.197 1.37.564 2.693 1.105 1.275.521 2.253.802 2.926.847.723.049 1.6.085 2.644.109.969.023 1.828-.144 2.587-.499a7.287 7.287 0 0 0 2.133-1.525l70.545-71.523c1.06-1.075 1.33-2.27.832-3.677zm0 0zm-216.789 21.354c-4.772.356-9.207-.46-13.286-2.45-4.11-2.004-6.784-4.675-7.992-8.01-1.228-3.381-.557-6.401 1.991-8.969 2.505-2.523 6.17-3.959 10.966-4.318 4.773-.355 9.206.462 13.286 2.452 4.11 2.004 6.784 4.675 7.992 8.007 1.229 3.383.557 6.405-1.991 8.973-2.505 2.524-6.17 3.958-10.966 4.315zm45.116-39.848L205.43 174.64l2.56-2.604c.69-.702 1.649-1.099 2.857-1.198l35.606-2.922a6.388 6.388 0 0 1 3.38.634l18.556 9.05-18.43 18.758zm56.056 89.495c-4.773.356-9.207-.46-13.286-2.45-4.11-2.005-6.786-4.676-7.993-8.01-1.228-3.382-.557-6.403 1.991-8.97 2.505-2.523 6.17-3.959 10.966-4.317 4.772-.356 9.206.462 13.287 2.452 4.11 2.004 6.784 4.675 7.992 8.008 1.226 3.384.555 6.405-1.992 8.972-2.506 2.524-6.169 3.959-10.965 4.315z" opacity=".2"/>
        <path d="M415.973 203.435c-.55-1.474-1.765-2.657-3.666-3.544l-119.133-55.553c-1.933-.9-4.026-1.24-6.285-1.014-2.236.223-3.898.924-5.003 2.09l-13.498 14.23-18.942-8.833c-2.05-.957-4.576-1.687-7.575-2.189-3.005-.502-5.653-.637-7.95-.407l-36.7 3.663c-1.571.157-3.098.47-4.587.94-1.488.47-2.712.95-3.657 1.428-.935.475-2.007 1.233-3.21 2.273-1.263 1.093-2.13 1.863-2.655 2.359-.531.505-1.4 1.42-2.596 2.738a199.947 199.947 0 0 1-2.365 2.582l-22.33 23.54-.327-.151c-1.934-.902-4.026-1.24-6.287-1.014-2.233.221-3.895.923-5.001 2.089-.642.676-1.056 1.327-1.249 1.947-.175.564-.098 1.108.245 1.673.398.657.769 1.227 1.104 1.7.282.394 1.006.927 2.156 1.564 1.243.688 2.046 1.13 2.474 1.365.43.231 1.41.689 2.931 1.366 1.544.684 2.426 1.077 2.663 1.188l8.074 3.765-.478.504c-4.745 5.003-5.957 10.548-3.66 16.717 2.318 6.216 7.515 11.215 15.626 14.997 8.138 3.795 16.793 5.234 25.971 4.318 9.155-.913 16.115-3.899 20.902-8.945l.248-.261 45.631 21.278-.478.504c-4.746 5.003-5.957 10.548-3.66 16.717 2.316 6.214 7.514 11.214 15.625 14.996 8.14 3.796 16.79 5.234 25.971 4.319 9.155-.914 16.116-3.9 20.902-8.945l.248-.262.327.153c.236.11 1.1.53 2.589 1.26 1.48.723 2.462 1.18 2.931 1.368.486.191 1.4.548 2.756 1.074 1.304.506 2.304.773 2.99.805a62.4 62.4 0 0 0 2.69.057c.987.004 1.86-.184 2.628-.563a7.48 7.48 0 0 0 2.15-1.604l70.667-74.496c1.065-1.123 1.323-2.356.793-3.786zm0 0zm-220.169 26.241c-4.847.462-9.369-.28-13.547-2.23-4.209-1.962-6.968-4.634-8.247-8.013-1.298-3.424-.662-6.517 1.887-9.188 2.507-2.626 6.21-4.166 11.08-4.63 4.849-.461 9.369.282 13.548 2.231 4.209 1.963 6.968 4.634 8.247 8.011 1.299 3.427.663 6.52-1.887 9.191-2.508 2.627-6.21 4.167-11.08 4.628zm45.281-41.623l-45.6-21.264 2.552-2.7c.688-.73 1.656-1.153 2.881-1.28l36.17-3.712a6.452 6.452 0 0 1 3.443.578l18.998 8.86-18.444 19.518zm58.367 90.262c-4.848.461-9.369-.282-13.547-2.23-4.21-1.963-6.97-4.636-8.247-8.014-1.298-3.425-.663-6.518 1.886-9.188 2.508-2.627 6.21-4.167 11.081-4.63 4.847-.462 9.368.283 13.548 2.232 4.209 1.962 6.968 4.634 8.247 8.011 1.296 3.428.66 6.521-1.887 9.19-2.509 2.628-6.21 4.167-11.08 4.629z" opacity=".25"/>
        <path d="M410.255 191.937c-.583-1.496-1.837-2.68-3.785-3.548l-121.968-54.304c-1.98-.881-4.114-1.184-6.408-.909-2.272.274-3.953 1.025-5.061 2.24l-13.5 14.796-19.389-8.632c-2.1-.935-4.68-1.63-7.736-2.081-3.063-.451-5.758-.536-8.09-.255l-37.256 4.484a23.016 23.016 0 0 0-4.65 1.055c-1.507.51-2.744 1.024-3.699 1.532-.943.504-2.023 1.3-3.23 2.387-1.268 1.142-2.138 1.946-2.664 2.463-.533.527-1.401 1.478-2.598 2.849a205.371 205.371 0 0 1-2.365 2.684l-22.338 24.483-.33-.147c-1.98-.882-4.113-1.185-6.41-.908-2.269.272-3.95 1.023-5.06 2.238-.642.705-1.055 1.38-1.242 2.02-.17.582-.083 1.14.276 1.711.414.663.8 1.238 1.148 1.714.293.398 1.039.928 2.218 1.555 1.274.677 2.097 1.113 2.536 1.343.44.228 1.445.676 3.002 1.336 1.58.667 2.482 1.051 2.724 1.16l8.256 3.675-.467.512c-4.752 5.207-5.9 10.9-3.469 17.155 2.453 6.302 7.814 11.302 16.118 15 8.334 3.71 17.156 5.004 26.474 3.882 9.295-1.119 16.328-4.309 21.12-9.56l.243-.267 46.701 20.793-.467.512c-4.752 5.207-5.9 10.9-3.468 17.155 2.45 6.3 7.812 11.301 16.117 14.999 8.334 3.71 17.152 5.004 26.474 3.883 9.295-1.119 16.328-4.31 21.12-9.56l.243-.267.33.146c.241.108 1.126.52 2.651 1.235 1.516.708 2.521 1.155 3.002 1.337.496.186 1.432.531 2.817 1.04 1.335.491 2.356.743 3.054.762.75.021 1.658.022 2.737.004 1.004-.016 1.89-.226 2.666-.629a7.676 7.676 0 0 0 2.165-1.684l70.706-77.494c1.07-1.173 1.314-2.442.752-3.895zm0 0zM186.81 223.19c-4.92.57-9.527-.098-13.804-2.002-4.308-1.918-7.153-4.589-8.504-8.01-1.37-3.467-.772-6.632 1.775-9.406 2.507-2.73 6.246-4.377 11.188-4.95 4.921-.569 9.526.099 13.804 2.004 4.308 1.918 7.154 4.588 8.504 8.008 1.371 3.468.773 6.634-1.775 9.41-2.507 2.73-6.245 4.375-11.188 4.946zm45.398-43.419l-46.67-20.778 2.542-2.797c.687-.756 1.662-1.207 2.904-1.36l36.715-4.525a6.516 6.516 0 0 1 3.507.52l19.44 8.655-18.438 20.285zm60.721 90.977c-4.92.57-9.527-.098-13.804-2.001-4.308-1.919-7.155-4.59-8.504-8.012-1.37-3.467-.773-6.632 1.774-9.406 2.507-2.73 6.246-4.377 11.189-4.95 4.919-.568 9.526.1 13.805 2.005 4.307 1.918 7.153 4.589 8.503 8.009 1.369 3.47.771 6.635-1.775 9.408-2.507 2.731-6.245 4.377-11.188 4.947z" opacity=".3"/>
        <path d="M404.474 180.357c-.615-1.517-1.91-2.702-3.904-3.549l-124.795-52.972c-2.026-.86-4.201-1.127-6.53-.799-2.307.326-4.005 1.126-5.115 2.39l-13.488 15.37-19.832-8.419c-2.149-.912-4.782-1.57-7.896-1.969-3.12-.4-5.861-.431-8.228-.097l-37.794 5.326a23.391 23.391 0 0 0-4.712 1.17c-1.522.551-2.773 1.1-3.736 1.639-.951.534-2.037 1.368-3.248 2.502-1.271 1.191-2.143 2.03-2.67 2.568-.533.549-1.401 1.538-2.597 2.96a210.829 210.829 0 0 1-2.362 2.788l-22.32 25.432-.332-.14c-2.028-.861-4.2-1.128-6.531-.799-2.304.323-4.004 1.124-5.114 2.39-.644.733-1.054 1.433-1.235 2.091-.165.602-.067 1.172.308 1.75.431.67.833 1.248 1.194 1.727.305.401 1.07.928 2.28 1.545a616.26 616.26 0 0 0 2.598 1.32c.45.223 1.479.66 3.071 1.302 1.617.65 2.54 1.023 2.787 1.129l8.436 3.58-.456.52c-4.752 5.415-5.832 11.253-3.263 17.593 2.59 6.385 8.118 11.381 16.616 14.988 8.527 3.62 17.514 4.763 26.968 3.431 9.431-1.329 16.532-4.727 21.323-10.186l.238-.272 47.768 20.277-.456.52c-4.752 5.414-5.832 11.252-3.262 17.592 2.588 6.384 8.116 11.38 16.614 14.988 8.528 3.62 17.51 4.763 26.968 3.431 9.432-1.329 16.533-4.728 21.323-10.186l.239-.272.332.141c.248.105 1.153.508 2.714 1.207 1.552.692 2.58 1.129 3.072 1.305.507.179 1.463.513 2.88 1.005 1.364.474 2.406.71 3.116.716a63.95 63.95 0 0 0 2.782-.05c1.022-.038 1.92-.27 2.704-.698.797-.43 1.521-1.018 2.177-1.765l70.662-80.516c1.072-1.222 1.302-2.527.706-4.004zm0 0zm-226.61 36.389c-4.99.68-9.682.092-14.057-1.765-4.406-1.87-7.337-4.539-8.762-8.002-1.445-3.506-.887-6.743 1.655-9.622 2.504-2.835 6.276-4.59 11.288-5.273 4.991-.68 9.681-.09 14.058 1.767 4.406 1.87 7.338 4.538 8.762 8 1.446 3.507.888 6.745-1.655 9.625-2.504 2.835-6.275 4.589-11.288 5.27zm45.466-45.23l-47.736-20.262 2.53-2.894c.685-.783 1.666-1.262 2.924-1.443l37.244-5.356a6.58 6.58 0 0 1 3.57.46l19.878 8.438-18.41 21.057zm63.119 91.636c-4.992.68-9.683.092-14.057-1.765-4.408-1.87-7.34-4.54-8.764-8.002-1.445-3.507-.887-6.744 1.655-9.622 2.504-2.835 6.276-4.59 11.288-5.273 4.99-.68 9.682-.09 14.059 1.767 4.406 1.87 7.338 4.538 8.762 8 1.443 3.51.886 6.747-1.656 9.625-2.504 2.836-6.275 4.59-11.287 5.27z" opacity=".35"/>
        <path d="M398.63 168.698c-.65-1.538-1.985-2.722-4.026-3.547l-127.612-51.558c-2.072-.838-4.288-1.066-6.649-.686-2.34.379-4.056 1.23-5.165 2.545l-13.459 15.945-20.276-8.192c-2.198-.888-4.883-1.507-8.054-1.852-3.177-.345-5.962-.323-8.362.065l-38.314 6.188c-1.641.265-3.23.694-4.77 1.288-1.54.593-2.801 1.179-3.772 1.747-.96.565-2.05 1.439-3.262 2.62-1.274 1.24-2.147 2.114-2.673 2.674-.534.57-1.401 1.597-2.594 3.073a216.28 216.28 0 0 1-2.356 2.891l-22.274 26.389-.336-.136c-2.074-.838-4.287-1.067-6.65-.684-2.338.376-4.054 1.228-5.165 2.543-.644.763-1.05 1.486-1.224 2.164-.16.62-.05 1.204.34 1.79.45.673.866 1.256 1.241 1.737.317.404 1.104.927 2.343 1.532 1.336.653 2.2 1.073 2.66 1.295.461.22 1.513.644 3.14 1.268 1.653.63 2.596.993 2.85 1.096l8.615 3.48-.445.528c-4.747 5.623-5.754 11.607-3.043 18.028 2.732 6.465 8.427 11.453 17.118 14.965 8.72 3.523 17.87 4.51 27.454 2.963 9.563-1.545 16.726-5.155 21.51-10.822l.234-.277 48.831 19.729-.445.527c-4.747 5.623-5.753 11.607-3.042 18.028 2.73 6.464 8.424 11.453 17.116 14.965 8.722 3.523 17.866 4.51 27.455 2.963 9.563-1.545 16.726-5.155 21.51-10.822l.234-.277.335.136c.253.102 1.18.494 2.776 1.176 1.588.676 2.64 1.1 3.141 1.27.519.173 1.496.495 2.942.969 1.394.456 2.457.677 3.18.669.774-.01 1.712-.045 2.825-.108 1.039-.058 1.949-.313 2.74-.766.804-.456 1.532-1.07 2.187-1.847l70.533-83.56c1.074-1.272 1.287-2.614.658-4.112zm0 0zM168.966 210.34c-5.058.793-9.833.287-14.306-1.52-4.504-1.82-7.523-4.483-9.024-7.986-1.521-3.545-1.005-6.853 1.53-9.838 2.497-2.94 6.3-4.804 11.38-5.601 5.058-.793 9.831-.286 14.306 1.522 4.504 1.82 7.524 4.482 9.024 7.984 1.521 3.546 1.006 6.856-1.53 9.84-2.497 2.94-6.3 4.804-11.38 5.599zm45.484-47.056l-48.798-19.716 2.515-2.99c.681-.81 1.669-1.318 2.942-1.528l37.755-6.207a6.645 6.645 0 0 1 3.63.398l20.316 8.208-18.36 21.835zm65.556 92.239c-5.059.793-9.833.287-14.305-1.52-4.506-1.82-7.526-4.484-9.026-7.987-1.52-3.545-1.005-6.854 1.53-9.837 2.497-2.94 6.3-4.806 11.38-5.602 5.057-.792 9.832-.285 14.307 1.523 4.504 1.82 7.524 4.482 9.024 7.984 1.519 3.548 1.004 6.857-1.53 9.84-2.498 2.941-6.3 4.805-11.38 5.599z" opacity=".4"/>
        <path d="M392.72 156.96c-.686-1.557-2.061-2.74-4.148-3.541l-130.418-50.063c-2.119-.813-4.373-1.003-6.767-.567-2.373.432-4.103 1.336-5.211 2.702l-13.414 16.523-20.717-7.952c-2.247-.863-4.985-1.44-8.21-1.73-3.233-.29-6.062-.211-8.494.232l-38.815 7.07c-1.663.302-3.27.772-4.826 1.408-1.554.636-2.827 1.258-3.804 1.858-.967.595-2.061 1.508-3.275 2.738-1.274 1.29-2.147 2.198-2.673 2.78-.533.593-1.398 1.658-2.586 3.187a221.765 221.765 0 0 1-2.347 2.995l-22.203 27.35-.338-.13c-2.12-.813-4.373-1.003-6.768-.566-2.37.43-4.102 1.335-5.211 2.7-.643.793-1.046 1.54-1.212 2.237-.153.64-.033 1.235.375 1.827.467.678.9 1.265 1.288 1.748.329.407 1.136.925 2.405 1.518 1.368.64 2.25 1.051 2.722 1.268.472.215 1.547.627 3.21 1.231 1.688.61 2.652.962 2.91 1.062l8.795 3.375-.435.535c-4.735 5.833-5.664 11.961-2.808 18.46 2.878 6.543 8.74 11.519 17.624 14.929 8.913 3.421 18.221 4.248 27.933 2.479 9.69-1.765 16.91-5.59 21.681-11.468l.23-.281 49.889 19.15-.435.536c-4.735 5.832-5.664 11.96-2.807 18.46 2.874 6.54 8.738 11.518 17.622 14.928 8.914 3.422 18.218 4.247 27.933 2.479 9.69-1.765 16.911-5.59 21.682-11.467l.229-.282.338.13c.259.1 1.206.481 2.838 1.145 1.623.658 2.698 1.07 3.21 1.234.53.166 1.527.474 3.003.929 1.423.438 2.507.643 3.241.62a65.52 65.52 0 0 0 2.869-.166c1.055-.08 1.977-.359 2.774-.837.81-.481 1.54-1.124 2.195-1.93l70.32-86.623c1.073-1.322 1.27-2.7.605-4.22zm0 0h-.001zm-232.603 47.015c-5.124.91-9.98.488-14.55-1.267-4.603-1.766-7.71-4.422-9.288-7.963-1.6-3.582-1.128-6.961 1.396-10.052 2.488-3.045 6.32-5.022 11.464-5.935 5.124-.908 9.979-.485 14.55 1.27 4.603 1.766 7.71 4.421 9.288 7.96 1.6 3.584 1.129 6.965-1.396 10.056-2.488 3.046-6.318 5.02-11.464 5.931zm45.452-48.896l-49.856-19.138 2.498-3.089c.677-.837 1.67-1.373 2.958-1.612l38.247-7.078a6.71 6.71 0 0 1 3.69.334l20.753 7.966-18.29 22.617zm68.034 92.784c-5.124.909-9.98.487-14.55-1.267-4.604-1.767-7.712-4.423-9.289-7.964-1.598-3.582-1.128-6.962 1.396-10.052 2.489-3.046 6.32-5.022 11.464-5.935 5.123-.908 9.98-.485 14.552 1.27 4.602 1.767 7.71 4.421 9.288 7.961 1.597 3.585 1.126 6.966-1.397 10.055-2.49 3.047-6.319 5.022-11.464 5.932z" opacity=".45"/>
        <path d="M386.74 145.145c-.721-1.576-2.137-2.756-4.27-3.532L249.26 93.129c-2.165-.789-4.457-.938-6.882-.447-2.404.489-4.149 1.445-5.254 2.861l-13.352 17.107-21.157-7.7c-2.295-.836-5.084-1.371-8.364-1.603-3.287-.232-6.16-.097-8.622.403l-39.297 7.97c-1.684.342-3.309.852-4.879 1.532-1.568.679-2.85 1.339-3.834 1.97-.972.626-2.07 1.58-3.283 2.858-1.273 1.341-2.145 2.284-2.67 2.888-.533.615-1.393 1.718-2.576 3.3a227.241 227.241 0 0 1-2.335 3.1l-22.104 28.318-.342-.124c-2.167-.789-4.457-.938-6.883-.445-2.402.486-4.148 1.443-5.253 2.86-.642.821-1.04 1.593-1.198 2.31-.146.657-.013 1.266.412 1.863.484.682.933 1.272 1.335 1.758.341.409 1.17.921 2.468 1.501 1.399.626 2.302 1.028 2.784 1.24.483.21 1.58.61 3.28 1.193 1.722.589 2.706.928 2.971 1.024l8.971 3.266-.423.542c-4.718 6.044-5.564 12.315-2.56 18.89 3.027 6.616 9.06 11.576 18.134 14.879 9.105 3.313 18.57 3.973 28.403 1.979 9.813-1.99 17.084-6.033 21.837-12.122l.224-.287 50.942 18.542-.423.542c-4.718 6.044-5.565 12.316-2.56 18.89 3.024 6.615 9.058 11.575 18.133 14.878 9.106 3.315 18.566 3.974 28.403 1.98 9.812-1.99 17.085-6.034 21.837-12.122l.224-.287.341.125c.264.096 1.231.467 2.9 1.112 1.658.638 2.756 1.038 3.279 1.194.54.16 1.557.454 3.063.889 1.453.419 2.557.606 3.303.568a66.31 66.31 0 0 0 2.91-.225c1.07-.102 2.003-.405 2.806-.909.817-.507 1.55-1.178 2.202-2.013l70.02-89.705c1.071-1.373 1.25-2.787.549-4.327zm0 0zm-235.422 52.503c-5.187 1.027-10.123.692-14.79-1.006-4.7-1.71-7.895-4.356-9.554-7.934-1.678-3.617-1.254-7.068 1.257-10.265 2.476-3.151 6.332-5.24 11.539-6.272 5.188-1.027 10.122-.691 14.79 1.008 4.7 1.71 7.896 4.355 9.554 7.932 1.68 3.618 1.255 7.07-1.256 10.267-2.477 3.152-6.332 5.24-11.54 6.27zm45.37-50.75l-50.908-18.53 2.478-3.186c.672-.865 1.67-1.43 2.972-1.698l38.72-7.969a6.775 6.775 0 0 1 3.75.268l21.185 7.71-18.197 23.404zm70.55 93.27c-5.187 1.027-10.123.693-14.79-1.006-4.7-1.711-7.897-4.357-9.554-7.935-1.678-3.617-1.255-7.068 1.256-10.264 2.476-3.152 6.332-5.242 11.54-6.272 5.186-1.027 10.122-.691 14.792 1.008 4.699 1.71 7.895 4.356 9.552 7.932 1.677 3.62 1.254 7.071-1.256 10.267-2.477 3.153-6.332 5.241-11.54 6.27z" opacity=".5"/>
        <path d="M380.69 133.254c-.758-1.594-2.215-2.77-4.394-3.52L240.312 82.91c-2.211-.76-4.542-.868-6.996-.32-2.434.545-4.192 1.555-5.292 3.022l-13.276 17.692-21.592-7.435c-2.343-.807-5.184-1.298-8.517-1.47-3.34-.173-6.254.02-8.746.579l-39.76 8.89a24.904 24.904 0 0 0-4.929 1.657c-1.58.722-2.873 1.42-3.86 2.083-.979.657-2.078 1.651-3.29 2.979-1.27 1.392-2.14 2.37-2.664 2.996-.53.638-1.387 1.778-2.562 3.415a232.752 232.752 0 0 1-2.32 3.205l-21.979 29.29-.344-.118c-2.213-.762-4.54-.87-6.997-.32-2.432.543-4.19 1.554-5.291 3.021-.64.852-1.032 1.648-1.181 2.383-.138.677.006 1.298.449 1.9.503.686.968 1.279 1.384 1.766.353.411 1.203.918 2.53 1.484 1.43.61 2.354 1.003 2.846 1.21.494.204 1.615.59 3.348 1.151 1.759.567 2.763.894 3.033.987l9.148 3.15-.412.55c-4.695 6.255-5.454 12.67-2.298 19.316 3.179 6.686 9.383 11.625 18.648 14.815 9.295 3.201 18.914 3.69 28.864 1.464 9.93-2.22 17.247-6.484 21.976-12.785l.218-.291 51.989 17.9-.413.55c-4.694 6.256-5.453 12.67-2.296 19.317 3.175 6.685 9.38 11.624 18.646 14.815 9.296 3.2 18.91 3.688 28.864 1.464 9.93-2.22 17.248-6.485 21.976-12.786l.219-.29.344.118c.27.092 1.257.452 2.96 1.077 1.694.618 2.815 1.004 3.349 1.154.55.151 1.587.432 3.123.846 1.482.399 2.606.568 3.363.515.81-.057 1.789-.152 2.95-.287 1.086-.125 2.03-.452 2.837-.982.822-.534 1.556-1.232 2.205-2.098l69.635-92.802c1.068-1.423 1.227-2.873.49-4.433zm0 0zm-238.12 58.103c-5.247 1.148-10.262.903-15.026-.737-4.796-1.652-8.08-4.285-9.82-7.898-1.76-3.65-1.385-7.17 1.11-10.475 2.46-3.258 6.34-5.462 11.606-6.615 5.248-1.147 10.261-.901 15.026.74 4.797 1.651 8.082 4.284 9.82 7.895 1.761 3.652 1.387 7.173-1.109 10.478-2.46 3.26-6.339 5.461-11.607 6.612zm45.237-52.617l-51.954-17.889 2.455-3.284c.667-.893 1.67-1.487 2.984-1.785l39.174-8.877a6.84 6.84 0 0 1 3.807.2l21.616 7.443-18.082 24.192zm73.104 93.698c-5.248 1.148-10.262.903-15.025-.737-4.798-1.652-8.084-4.286-9.822-7.898-1.76-3.651-1.385-7.172 1.11-10.475 2.46-3.26 6.34-5.463 11.606-6.615 5.247-1.147 10.261-.901 15.028.74 4.796 1.651 8.08 4.284 9.82 7.895 1.757 3.654 1.384 7.175-1.11 10.478-2.462 3.26-6.34 5.462-11.607 6.612z" opacity=".55"/>
        <path d="M374.569 121.29c-.796-1.613-2.295-2.784-4.52-3.506l-138.742-45.08c-2.256-.734-4.624-.798-7.106-.192-2.463.603-4.232 1.668-5.327 3.186l-13.181 18.28-22.026-7.157c-2.392-.777-5.282-1.223-8.667-1.334-3.394-.11-6.347.143-8.868.76l-40.2 9.829a25.284 25.284 0 0 0-4.977 1.784c-1.593.767-2.894 1.504-3.886 2.198-.982.69-2.083 1.724-3.29 3.101-1.268 1.443-2.135 2.457-2.656 3.105-.53.66-1.38 1.84-2.546 3.53a238.262 238.262 0 0 1-2.302 3.31l-21.826 30.268-.347-.113c-2.258-.733-4.623-.798-7.107-.19-2.461.6-4.23 1.665-5.326 3.185-.636.881-1.022 1.702-1.162 2.455-.13.696.027 1.329.488 1.935.521.69 1.003 1.285 1.433 1.774.366.413 1.237.913 2.594 1.465 1.46.594 2.404.976 2.907 1.177.504.199 1.648.57 3.416 1.109 1.794.544 2.818.857 3.094.947l9.322 3.029-.4.556c-4.666 6.47-5.334 13.024-2.021 19.74 3.334 6.753 9.71 11.667 19.164 14.739 9.485 3.081 19.254 3.393 29.316.933 10.041-2.455 17.4-6.943 22.098-13.458l.213-.296 53.028 17.23-.401.556c-4.665 6.47-5.333 13.025-2.02 19.74 3.33 6.753 9.708 11.667 19.163 14.739 9.486 3.082 19.25 3.393 29.315.933 10.042-2.455 17.401-6.943 22.099-13.458l.213-.295.347.112c.275.09 1.283.437 3.021 1.04 1.729.598 2.873.97 3.417 1.112.561.143 1.618.41 3.183.801 1.51.378 2.654.53 3.422.46.821-.073 1.813-.19 2.99-.349 1.101-.149 2.054-.5 2.866-1.057.826-.56 1.56-1.287 2.206-2.183l69.162-95.912c1.064-1.475 1.202-2.96.427-4.539zm0 0v-.001zM133.875 185.1c-5.305 1.272-10.397 1.12-15.257-.46-4.892-1.59-8.266-4.208-10.088-7.854-1.843-3.682-1.52-7.272.955-10.683 2.443-3.366 6.342-5.686 11.665-6.962 5.306-1.27 10.396-1.117 15.257.462 4.892 1.59 8.267 4.208 10.089 7.852 1.843 3.684 1.52 7.275-.955 10.687-2.444 3.367-6.341 5.685-11.666 6.958zm45.051-54.492l-52.992-17.218 2.43-3.383c.66-.92 1.666-1.544 2.994-1.873l39.606-9.804a6.907 6.907 0 0 1 3.864.13l22.044 7.162-17.946 24.986zm75.695 94.063c-5.306 1.271-10.397 1.119-15.256-.46-4.894-1.59-8.27-4.21-10.09-7.855-1.843-3.683-1.52-7.273.955-10.683 2.443-3.367 6.341-5.686 11.666-6.962 5.304-1.27 10.395-1.117 15.257.463 4.892 1.59 8.267 4.208 10.089 7.852 1.84 3.686 1.519 7.276-.956 10.686-2.444 3.368-6.34 5.686-11.665 6.959z" opacity=".6"/>
        <path d="M368.373 109.252c-.835-1.63-2.376-2.794-4.646-3.488L222.248 62.51c-2.302-.704-4.706-.724-7.215-.059-2.49.662-4.27 1.782-5.357 3.352l-13.071 18.87-22.456-6.866c-2.44-.746-5.38-1.145-8.816-1.193-3.445-.047-6.437.268-8.984.945l-40.622 10.785a25.666 25.666 0 0 0-5.021 1.914c-1.604.812-2.912 1.588-3.907 2.315-.987.722-2.086 1.798-3.29 3.224-1.262 1.494-2.126 2.543-2.644 3.214-.526.683-1.37 1.901-2.525 3.646a243.795 243.795 0 0 1-2.282 3.416l-21.645 31.248-.35-.107c-2.303-.705-4.704-.725-7.216-.057-2.488.659-4.268 1.779-5.356 3.35-.632.911-1.01 1.756-1.14 2.529-.122.714.05 1.358.528 1.97.54.692 1.038 1.29 1.482 1.78.38.413 1.272.906 2.658 1.443 1.491.577 2.454.947 2.968 1.143.515.193 1.681.55 3.484 1.064 1.828.52 2.872.819 3.153.905l9.497 2.903-.39.563c-4.63 6.683-5.201 13.379-1.73 20.159 3.493 6.818 10.043 11.701 19.685 14.65 9.672 2.956 19.588 3.086 29.756.386 10.149-2.694 17.543-7.41 22.204-14.138l.208-.3 54.06 16.528-.39.562c-4.63 6.684-5.201 13.379-1.73 20.16 3.49 6.816 10.041 11.7 19.684 14.648 9.673 2.958 19.585 3.087 29.756.387 10.15-2.695 17.544-7.41 22.205-14.138l.207-.3.35.107c.28.085 1.308.42 3.082 1.001 1.763.576 2.93.932 3.484 1.066.572.136 1.648.387 3.242.756 1.539.356 2.702.488 3.48.403.833-.091 1.837-.228 3.028-.413 1.116-.173 2.078-.55 2.894-1.134.83-.587 1.564-1.343 2.205-2.269l68.601-99.033c1.058-1.527 1.174-3.047.36-4.643zm0 0zm-243.14 69.629c-5.36 1.396-10.527 1.34-15.482-.176-4.987-1.524-8.451-4.126-10.358-7.804-1.928-3.712-1.66-7.37.794-10.89 2.422-3.473 6.337-5.91 11.715-7.312 5.361-1.395 10.526-1.337 15.482.178 4.988 1.525 8.452 4.126 10.359 7.802 1.928 3.713 1.66 7.373-.794 10.893-2.422 3.474-6.337 5.91-11.716 7.309zm44.814-56.379l-54.023-16.516 2.402-3.482c.654-.948 1.662-1.6 3.002-1.96l40.02-10.75a6.973 6.973 0 0 1 3.918.058l22.469 6.87-17.788 25.78zm78.32 94.367c-5.361 1.396-10.527 1.34-15.481-.175-4.99-1.526-8.455-4.128-10.36-7.805-1.928-3.713-1.66-7.371.793-10.89 2.423-3.474 6.338-5.91 11.716-7.312 5.36-1.395 10.526-1.337 15.483.178 4.988 1.525 8.452 4.127 10.359 7.802 1.926 3.716 1.658 7.375-.795 10.893-2.423 3.475-6.336 5.91-11.715 7.309z" opacity=".65"/>
        <path d="M362.1 97.142c-.874-1.644-2.457-2.802-4.772-3.465L213.134 52.329c-2.348-.673-4.787-.647-7.322.079-2.517.722-4.304 1.898-5.383 3.52l-12.944 19.46-22.883-6.561c-2.486-.713-5.474-1.063-8.961-1.047-3.495.018-6.525.396-9.098 1.134l-41.022 11.76a26.048 26.048 0 0 0-5.062 2.045c-1.614.859-2.927 1.674-3.926 2.433-.989.755-2.087 1.872-3.285 3.348-1.256 1.546-2.115 2.631-2.63 3.324-.521.706-1.357 1.963-2.5 3.762a249.333 249.333 0 0 1-2.259 3.522l-21.437 32.23-.352-.1c-2.349-.674-4.785-.648-7.322.08-2.515.719-4.303 1.895-5.383 3.517-.626.942-.997 1.811-1.117 2.602-.111.733.073 1.389.57 2.004a32.14 32.14 0 0 0 1.533 1.784c.392.416 1.306.901 2.721 1.421 1.522.559 2.505.918 3.03 1.107.525.187 1.713.528 3.55 1.018 1.863.494 2.926.779 3.213.861l9.669 2.772-.379.57c-4.588 6.898-5.058 13.731-1.425 20.574 3.655 6.878 10.379 11.727 20.207 14.545 9.86 2.827 19.92 2.77 30.188-.175 10.25-2.938 17.674-7.882 22.292-14.825l.203-.305 55.082 15.795-.378.569c-4.588 6.898-5.058 13.732-1.425 20.574 3.652 6.877 10.377 11.727 20.206 14.545 9.86 2.827 19.915 2.77 30.188-.175 10.25-2.938 17.674-7.882 22.293-14.825l.202-.305.352.101c.285.082 1.334.403 3.142.961 1.798.552 2.987.893 3.551 1.02.582.127 1.678.362 3.301.707 1.567.333 2.75.445 3.538.344a69.497 69.497 0 0 0 3.064-.479c1.13-.198 2.1-.6 2.92-1.21.833-.616 1.565-1.4 2.201-2.356l67.953-102.165c1.05-1.578 1.143-3.133.29-4.747zm0 0zm-245.455 75.551c-5.412 1.525-10.652 1.565-15.701.117-5.082-1.457-8.637-4.04-10.63-7.746-2.015-3.74-1.802-7.467.626-11.094 2.398-3.582 6.327-6.137 11.757-7.667 5.413-1.523 10.651-1.562 15.701-.114 5.083 1.457 8.638 4.04 10.63 7.744 2.015 3.742 1.803 7.47-.626 11.097-2.398 3.582-6.326 6.136-11.757 7.663zm44.525-58.272l-55.045-15.784 2.371-3.58c.647-.976 1.656-1.659 3.008-2.05l40.41-11.712a7.04 7.04 0 0 1 3.973-.016l22.89 6.564-17.607 26.578zm80.978 94.607c-5.413 1.524-10.653 1.565-15.701.117-5.083-1.458-8.64-4.041-10.631-7.747-2.014-3.741-1.802-7.467.626-11.094 2.398-3.582 6.327-6.137 11.757-7.666 5.411-1.524 10.651-1.563 15.703-.115 5.081 1.457 8.637 4.04 10.63 7.745 2.012 3.744 1.8 7.47-.627 11.096-2.399 3.583-6.327 6.137-11.757 7.664z" opacity=".7"/>
        <path d="M355.749 84.964c-.914-1.66-2.54-2.81-4.899-3.441L203.964 42.165c-2.392-.641-4.865-.569-7.425.219-2.541.783-4.336 2.015-5.405 3.69l-12.8 20.053-23.306-6.245c-2.532-.679-5.569-.979-9.104-.896-3.544.085-6.61.528-9.208 1.328l-41.4 12.751a26.431 26.431 0 0 0-5.1 2.18c-1.622.904-2.941 1.759-3.942 2.551-.99.788-2.086 1.946-3.277 3.473-1.248 1.598-2.1 2.719-2.611 3.434-.518.73-1.345 2.025-2.475 3.878a254.883 254.883 0 0 1-2.231 3.629l-21.202 33.215-.354-.095c-2.393-.641-4.864-.569-7.426.22-2.54.781-4.335 2.013-5.404 3.688-.62.972-.983 1.866-1.092 2.675-.101.752.098 1.418.613 2.037a32.574 32.574 0 0 0 1.584 1.788c.405.416 1.34.893 2.785 1.396 1.552.54 2.554.887 3.09 1.07.536.18 1.746.504 3.617.968 1.897.468 2.98.738 3.272.816l9.839 2.636-.368.576c-4.54 7.113-4.904 14.084-1.106 20.984 3.82 6.935 10.72 11.745 20.732 14.428 10.044 2.691 20.244 2.441 30.609-.751 10.346-3.187 17.793-8.362 22.363-15.521l.197-.309 56.096 15.031-.367.575c-4.54 7.114-4.904 14.085-1.106 20.985 3.817 6.933 10.717 11.744 20.73 14.427 10.046 2.692 20.241 2.442 30.61-.75 10.346-3.187 17.794-8.362 22.363-15.521l.197-.31.354.096c.291.078 1.36.384 3.202.918 1.832.528 3.043.853 3.618.97.592.12 1.707.338 3.358.658 1.595.31 2.796.402 3.595.283a70.3 70.3 0 0 0 3.099-.545c1.143-.223 2.121-.652 2.943-1.29.836-.642 1.566-1.456 2.196-2.442l67.215-105.303c1.041-1.63 1.11-3.22.217-4.85zm0 0zm-247.637 81.574c-5.461 1.654-10.773 1.795-15.915.417-5.175-1.387-8.82-3.948-10.902-7.682-2.103-3.767-1.95-7.56.451-11.295 2.37-3.69 6.311-6.365 11.79-8.025 5.462-1.653 10.772-1.793 15.915-.415 5.176 1.387 8.822 3.948 10.903 7.68 2.103 3.768 1.95 7.563-.451 11.299-2.372 3.69-6.31 6.363-11.79 8.02zm44.184-60.173l-56.059-15.02 2.339-3.68c.638-1.003 1.648-1.716 3.01-2.14l40.782-12.69a7.106 7.106 0 0 1 4.024-.092l23.308 6.245-17.404 27.377zm83.667 94.782c-5.462 1.655-10.773 1.795-15.914.418-5.178-1.388-8.825-3.95-10.904-7.683-2.102-3.767-1.949-7.56.45-11.295 2.372-3.69 6.312-6.365 11.79-8.025 5.461-1.653 10.773-1.793 15.918-.414 5.175 1.387 8.821 3.947 10.902 7.68 2.1 3.77 1.947 7.564-.452 11.298-2.372 3.691-6.31 6.364-11.79 8.021z" opacity=".75"/>
        <path d="M349.318 72.717c-.956-1.673-2.624-2.813-5.027-3.413l-149.55-37.287c-2.437-.607-4.944-.487-7.527.363-2.565.846-4.366 2.135-5.422 3.861l-12.64 20.647-23.724-5.915c-2.58-.643-5.663-.89-9.246-.74-3.591.153-6.693.662-9.313 1.525l-41.755 13.76a26.815 26.815 0 0 0-5.135 2.314c-1.63.952-2.954 1.847-3.955 2.673-.992.82-2.084 2.021-3.267 3.598-1.238 1.65-2.084 2.807-2.59 3.545-.513.752-1.33 2.086-2.445 3.995a260.445 260.445 0 0 1-2.201 3.735l-20.938 34.201-.356-.088c-2.438-.608-4.942-.488-7.527.364-2.562.843-4.364 2.132-5.421 3.86-.614 1.002-.967 1.92-1.064 2.747-.09.77.123 1.447.657 2.068a33.01 33.01 0 0 0 1.636 1.79c.418.418 1.374.886 2.847 1.37 1.583.521 2.605.855 3.15 1.031.547.173 1.78.48 3.684.918 1.93.44 3.033.694 3.33.768l10.007 2.495-.356.582c-4.486 7.329-4.74 14.435-.773 21.39 3.989 6.987 11.063 11.754 21.259 14.296 10.227 2.55 20.563 2.103 31.018-1.342 10.437-3.44 17.902-8.848 22.417-16.223l.191-.313 57.1 14.236-.356.582c-4.487 7.329-4.74 14.435-.773 21.39 3.986 6.986 11.06 11.753 21.257 14.296 10.229 2.55 20.56 2.103 31.019-1.342 10.437-3.44 17.902-8.849 22.417-16.223l.191-.313.356.088c.297.074 1.384.366 3.26.875 1.867.503 3.1.81 3.685.92.602.11 1.736.31 3.415.606 1.622.285 2.842.356 3.651.22a71.107 71.107 0 0 0 3.132-.614c1.157-.249 2.142-.704 2.965-1.37.838-.67 1.566-1.512 2.188-2.53l66.39-108.446c1.03-1.682 1.073-3.305.139-4.95zm0 0zM99.636 160.413c-5.508 1.787-10.889 2.03-16.124.725-5.268-1.313-9.004-3.85-11.175-7.61-2.192-3.791-2.1-7.65.27-11.494 2.34-3.798 6.288-6.594 11.813-8.386 5.508-1.786 10.887-2.028 16.124-.723 5.268 1.314 9.005 3.85 11.175 7.608 2.193 3.793 2.1 7.653-.269 11.498-2.341 3.798-6.288 6.592-11.814 8.382zm43.789-62.079L86.363 84.107l2.303-3.777c.629-1.031 1.64-1.775 3.012-2.232l41.13-13.685a7.173 7.173 0 0 1 4.074-.169l23.72 5.914-17.177 28.176zm86.387 94.893c-5.508 1.786-10.888 2.03-16.123.725-5.27-1.314-9.008-3.852-11.177-7.611-2.191-3.792-2.099-7.651.27-11.494 2.34-3.799 6.289-6.594 11.814-8.386 5.506-1.786 10.888-2.028 16.125-.722 5.268 1.313 9.005 3.85 11.175 7.608 2.19 3.795 2.098 7.655-.27 11.497-2.342 3.8-6.288 6.593-11.814 8.383z" opacity=".8"/>
        <path d="M342.804 60.404c-.997-1.686-2.708-2.816-5.154-3.38L185.462 21.887c-2.48-.573-5.02-.403-7.624.51-2.588.91-4.393 2.257-5.436 4.035l-12.462 21.24-24.139-5.572c-2.625-.606-5.754-.8-9.383-.58-3.638.223-6.774.799-9.415 1.727L74.915 58.032a27.2 27.2 0 0 0-5.167 2.452c-1.637 1-2.963 1.935-3.965 2.795-.992.854-2.08 2.097-3.252 3.724-1.227 1.702-2.065 2.895-2.566 3.656-.508.775-1.313 2.148-2.411 4.111a266.016 266.016 0 0 1-2.169 3.842L34.739 113.8l-.358-.082c-2.481-.573-5.019-.404-7.625.512-2.585.906-4.39 2.253-5.435 4.032-.605 1.033-.948 1.975-1.033 2.82-.08.788.149 1.476.702 2.1.618.7 1.185 1.301 1.688 1.792.432.417 1.41.875 2.911 1.341 1.613.5 2.654.821 3.21.99.557.166 1.811.455 3.748.864 1.964.412 3.086.65 3.388.72l10.174 2.349-.344.587c-4.427 7.545-4.565 14.785-.428 21.79 4.16 7.037 11.411 11.755 21.788 14.15 10.408 2.403 20.878 1.755 31.417-1.947 10.521-3.696 17.998-9.34 22.452-16.932l.186-.317 58.093 13.412-.345.587c-4.427 7.545-4.565 14.785-.427 21.79 4.157 7.036 11.408 11.755 21.786 14.15 10.41 2.404 20.874 1.755 31.417-1.947 10.522-3.696 17.999-9.341 22.453-16.932l.186-.317.357.083c.302.07 1.41.346 3.32.829 1.9.477 3.154.766 3.749.866.612.1 1.765.284 3.471.553 1.65.26 2.887.309 3.705.155.872-.163 1.922-.39 3.165-.683 1.169-.275 2.16-.758 2.985-1.45.838-.7 1.563-1.571 2.177-2.619l65.473-111.592c1.018-1.734 1.036-3.39.06-5.05zm0 0zM91.217 154.318c-5.552 1.921-11 2.27-16.326 1.04-5.36-1.237-9.188-3.748-11.45-7.531-2.283-3.814-2.254-7.738.081-11.69 2.308-3.906 6.26-6.824 11.828-8.75 5.552-1.92 10.999-2.268 16.326-1.038 5.36 1.238 9.19 3.748 11.45 7.529 2.284 3.815 2.255 7.74-.08 11.693-2.309 3.907-6.26 6.823-11.83 8.747zm43.34-63.99L76.505 76.927l2.264-3.875c.619-1.06 1.63-1.834 3.01-2.324l41.456-14.697a7.24 7.24 0 0 1 4.124-.248l24.13 5.57-16.93 28.977zm89.137 94.937c-5.551 1.92-11 2.27-16.325 1.04-5.361-1.238-9.191-3.75-11.451-7.532-2.282-3.814-2.253-7.738.08-11.69 2.309-3.907 6.262-6.824 11.83-8.75 5.55-1.92 10.998-2.268 16.327-1.037 5.36 1.237 9.188 3.747 11.45 7.528 2.28 3.818 2.252 7.743-.082 11.694-2.309 3.907-6.26 6.823-11.829 8.747z" opacity=".85"/>
        <path d="M336.207 48.027c-1.04-1.699-2.793-2.817-5.283-3.346L176.129 11.778c-2.524-.536-5.096-.317-7.72.662-2.607.974-4.415 2.379-5.444 4.21l-12.268 21.834-24.547-5.218c-2.67-.568-5.845-.707-9.52-.414-3.682.294-6.85.939-9.512 1.933L64.721 50.608a27.585 27.585 0 0 0-5.196 2.592c-1.642 1.047-2.97 2.024-3.971 2.917-.992.888-2.073 2.173-3.234 3.85-1.215 1.755-2.045 2.985-2.539 3.768-.502.799-1.295 2.21-2.375 4.228a271.592 271.592 0 0 1-2.133 3.948l-20.325 36.176-.36-.076c-2.525-.537-5.094-.318-7.72.663-2.606.97-4.415 2.376-5.444 4.207-.597 1.063-.93 2.03-1.001 2.893-.068.806.176 1.504.749 2.13.638.7 1.223 1.301 1.74 1.79.446.418 1.444.867 2.975 1.312 1.642.479 2.702.786 3.268.947.568.159 1.844.43 3.814.81 1.996.382 3.137.604 3.444.669l10.34 2.197-.334.593c-4.36 7.761-4.38 15.132-.067 22.184 4.334 7.083 11.761 11.748 22.317 13.991 10.588 2.25 21.186 1.396 31.803-2.567 10.6-3.956 18.084-9.84 22.47-17.647l.18-.32 59.074 12.556-.333.593c-4.36 7.76-4.379 15.132-.066 22.184 4.33 7.081 11.759 11.747 22.315 13.99 10.59 2.251 21.182 1.396 31.804-2.567 10.6-3.956 18.084-9.84 22.47-17.646l.18-.321.36.076c.306.066 1.433.326 3.377.781 1.933.45 3.21.722 3.814.812.622.09 1.793.256 3.527.497 1.675.234 2.93.261 3.758.09.88-.183 1.94-.433 3.195-.755 1.18-.301 2.179-.811 3.003-1.533.839-.727 1.559-1.628 2.165-2.706l64.467-114.739c1.004-1.787.994-3.476-.025-5.148zm0 0zM82.855 148.252c-5.591 2.057-11.105 2.513-16.522 1.362-5.45-1.159-9.37-3.64-11.724-7.445-2.376-3.834-2.412-7.822-.114-11.883 2.271-4.014 6.226-7.055 11.834-9.118 5.592-2.056 11.104-2.511 16.522-1.36 5.45 1.159 9.37 3.64 11.724 7.443 2.376 3.835 2.413 7.825.115 11.886-2.272 4.015-6.226 7.054-11.835 9.115zm42.84-65.903L66.661 69.8l2.223-3.973c.608-1.087 1.617-1.892 3.007-2.416l41.758-15.724a7.308 7.308 0 0 1 4.172-.329l24.532 5.215-16.658 29.776zm91.913 94.912c-5.592 2.057-11.105 2.513-16.52 1.362-5.453-1.159-9.374-3.641-11.727-7.445-2.375-3.835-2.411-7.823-.114-11.883 2.272-4.015 6.226-7.056 11.834-9.118 5.59-2.057 11.105-2.511 16.524-1.36 5.45 1.159 9.37 3.64 11.724 7.443 2.373 3.838 2.41 7.827.113 11.886-2.272 4.016-6.225 7.055-11.834 9.115z" opacity=".9"/>
        <path fill="#FFF" d="M329.456 35.57c-1.084-1.703-2.882-2.806-5.415-3.298l-157.37-30.59c-2.566-.498-5.169-.23-7.81.808-2.626 1.033-4.433 2.489-5.444 4.363L141.38 29.18l-24.951-4.85c-2.716-.528-5.934-.613-9.651-.252-3.725.364-6.924 1.073-9.602 2.127L54.512 42.983a27.951 27.951 0 0 0-5.218 2.717c-1.645 1.09-2.974 2.103-3.971 3.026-.99.918-2.062 2.239-3.209 3.958-1.2 1.8-2.018 3.06-2.505 3.862-.494.817-1.273 2.262-2.331 4.324a275.135 275.135 0 0 1-2.09 4.037l-19.946 36.996-.361-.07c-2.569-.499-5.168-.231-7.812.81-2.623 1.029-4.431 2.485-5.442 4.36-.587 1.088-.907 2.073-.964 2.95-.054.82.206 1.524.798 2.149a34.33 34.33 0 0 0 1.795 1.784c.46.415 1.48.852 3.038 1.277 1.672.456 2.752.748 3.328.901.578.151 1.875.403 3.877.753 2.03.352 3.188.556 3.501.617l10.502 2.041-.323.598c-4.28 7.94-4.169 15.41.325 22.478 4.516 7.099 12.123 11.693 22.856 13.78 10.765 2.092 21.486 1.038 32.171-3.164 10.668-4.195 18.145-10.287 22.45-18.274l.175-.323 60.043 11.67-.322.6c-4.281 7.94-4.17 15.408.324 22.476 4.513 7.098 12.121 11.693 22.855 13.78 10.766 2.093 21.482 1.04 32.171-3.163 10.669-4.195 18.145-10.288 22.451-18.274l.175-.324.36.07c.312.06 1.458.305 3.435.732 1.966.421 3.264.673 3.878.754.631.081 1.82.228 3.58.442 1.703.207 2.976.212 3.811.023.889-.2 1.958-.472 3.224-.82 1.191-.327 2.194-.862 3.017-1.607.837-.752 1.55-1.678 2.146-2.782l63.268-117.355c.987-1.83.947-3.543-.116-5.221zm0 0v.001zM74.606 141.564c-5.626 2.182-11.201 2.741-16.707 1.671-5.54-1.077-9.552-3.52-12.003-7.33-2.472-3.84-2.579-7.876-.325-12.028 2.23-4.105 6.18-7.253 11.822-9.442 5.627-2.18 11.2-2.739 16.707-1.668 5.54 1.076 9.553 3.52 12.003 7.328 2.473 3.84 2.58 7.878.326 12.03-2.23 4.106-6.18 7.253-11.823 9.439zm42.225-67.51L56.83 62.388l2.177-4.056c.596-1.11 1.603-1.943 3-2.497l42.017-16.665a7.397 7.397 0 0 1 4.216-.406l24.932 4.846-16.34 30.441zm94.776 94.51c-5.626 2.182-11.201 2.742-16.706 1.672-5.541-1.078-9.555-3.522-12.005-7.332-2.471-3.84-2.579-7.876-.325-12.027 2.23-4.105 6.18-7.254 11.822-9.442 5.625-2.18 11.2-2.739 16.709-1.668 5.539 1.077 9.552 3.52 12.002 7.328 2.47 3.844 2.578 7.88.325 12.03-2.23 4.107-6.179 7.254-11.822 9.44z" opacity=".95"/>
    </g>
</svg>
