<svg xmlns="http://www.w3.org/2000/svg" width="74" height="74" viewBox="0 0 74 74">
    <g fill="none" fill-rule="evenodd">
        <circle cx="37" cy="37" r="37" fill="#F92C56"/>
        <path fill="#FFF" fill-rule="nonzero" d="M51.66 16.87a21.945 21.945 0 0 0-2.083-1.057c-.183-.966-.525-1.79-1.159-2.304-.403-.327-1.105-.666-2.17-.43l-1.403.321c-.44.1-.926.284-1.437.529A34.655 34.655 0 0 0 37 13.342c-2.207 0-4.363.201-6.407.587a6.98 6.98 0 0 0-1.436-.528l-1.41-.323c-1.06-.235-1.762.104-2.165.431-.634.513-.976 1.338-1.16 2.304-.726.323-1.422.675-2.081 1.057C18.25 19.237 16 22.439 16 25.886v1.395c0 1.749.58 3.435 1.686 4.98V49.14c0 3.187 2.076 6.144 5.847 8.326 3.612 2.091 8.395 3.243 13.467 3.243 5.072 0 9.855-1.152 13.467-3.243 3.77-2.182 5.847-5.14 5.847-8.326V32.261C57.42 30.716 58 29.03 58 27.281v-1.395c0-3.447-2.252-6.65-6.34-9.016zm-.924 1.594c2.358 1.365 4 3.008 4.82 4.781h-6.493c.462-.777.707-1.702.707-2.714v-.097c0-.247.002-.506.005-.772.005-.563.01-1.144-.003-1.718.33.166.652.34.964.52zm-3.321 13.07c.117.557.287 1.363.263 1.73l-.02-.001c-.576-.048-2.313-1.032-4.519-3.473-1.552-1.717-2.804-3.585-3.607-5.347l.187.111c.583.347 1.364.77 2.2 1.191.947.477 3.267 1.604 5.203 2.205-.221 1.145.051 2.439.293 3.584zM26.879 27.95c1.935-.6 4.255-1.728 5.202-2.205a37.849 37.849 0 0 0 2.2-1.19l.187-.112c-.802 1.762-2.055 3.63-3.607 5.347-2.205 2.44-3.943 3.426-4.52 3.473l-.018.002c-.025-.368.145-1.174.262-1.731.242-1.145.515-2.439.294-3.584zm7.65-6.574c0-.977 1.132-1.802 2.471-1.802 1.34 0 2.47.825 2.47 1.802 0 .977-1.13 1.803-2.47 1.803-1.339 0-2.47-.826-2.47-1.803zm12.124-6.5c.413-.091.553.022.606.065.713.578.688 3.16.674 4.703-.003.273-.005.538-.005.79v.098c0 1.06-.392 1.957-1.103 2.525-.701.559-1.645.743-2.661.518l-3.122-.927c.175-.396.271-.825.271-1.272 0-1.057-.536-2.01-1.389-2.676 1.513-1.5 3.861-3.17 5.33-3.503l1.399-.32zm-5.68.542c-1.042.76-2.034 1.631-2.794 2.453a5.012 5.012 0 0 0-.258-.055v-2.62c1.035.028 2.055.103 3.052.222zm-4.894-.222v2.62a4.858 4.858 0 0 0-.258.055c-.76-.822-1.752-1.694-2.794-2.453a33.344 33.344 0 0 1 3.052-.222zm-9.337-.255c.052-.043.192-.156.6-.065l1.405.321c1.468.333 3.816 2.003 5.329 3.503-.853.666-1.389 1.62-1.389 2.676 0 .448.096.877.272 1.273l-3.123.926c-1.015.224-1.96.04-2.66-.518-.712-.568-1.103-1.464-1.103-2.526v-.097c0-.252-.003-.517-.006-.79-.014-1.543-.039-4.125.675-4.703zm-3.478 3.523c.312-.18.634-.354.964-.52a50.741 50.741 0 0 0-.003 1.718c.003.266.005.525.005.772v.097c0 1.012.245 1.937.707 2.714h-6.493c.82-1.773 2.462-3.416 4.82-4.78zm12.815 40.388c-4.406-.129-8.504-1.175-11.623-2.981-3.178-1.84-4.928-4.23-4.928-6.732V34.288c.809.719 1.748 1.393 2.813 2.009 3.71 2.148 8.56 3.385 13.738 3.516v19.039zm-12.815-24.15c-3.496-2.023-5.422-4.659-5.422-7.421v-1.395c0-.268.019-.534.055-.799h9.097c.41.186.844.314 1.3.377-.811.337-1.596.627-2.27.817-.853.241-1.086 1.423-.966 1.962.173.782-.065 1.913-.275 2.91-.296 1.404-.552 2.616.146 3.406.228.259.64.55 1.338.55.072 0 .147-.003.226-.01 1.636-.135 4.035-2.193 5.735-4.073 1.633-1.808 2.966-3.79 3.85-5.689V37.97c-4.855-.129-9.376-1.277-12.814-3.267zM54.472 49.14c0 2.502-1.75 4.892-4.928 6.732-3.12 1.806-7.217 2.852-11.623 2.98V39.814c5.179-.131 10.027-1.368 13.739-3.516a17.124 17.124 0 0 0 2.812-2.01V49.14zm1.686-21.858c0 2.762-1.926 5.398-5.422 7.422-3.437 1.99-7.959 3.138-12.815 3.267V25.337c.885 1.9 2.217 3.88 3.851 5.689 1.7 1.88 4.1 3.938 5.734 4.073.079.007.154.01.226.01.699 0 1.111-.291 1.34-.55.697-.79.441-2.002.145-3.405-.21-.998-.448-2.129-.275-2.91.12-.54-.113-1.722-.967-1.963-.673-.19-1.458-.48-2.268-.817.455-.064.89-.191 1.299-.377h9.097c.036.265.055.531.055.799v1.395z"/>
    </g>
</svg>
