<svg xmlns="http://www.w3.org/2000/svg" width="74" height="74" viewBox="0 0 74 74">
    <g fill="none" fill-rule="evenodd">
        <circle cx="37" cy="37" r="37" fill="#02A8FF"/>
        <path fill="#FFF" fill-rule="nonzero" d="M56.324 28.814A20.421 20.421 0 0 1 58 36.965c0 2.848-.561 5.576-1.676 8.176-2.215 5.162-5.978 8.94-11.184 11.16a20.649 20.649 0 0 1-8.175 1.676 20.43 20.43 0 0 1-8.151-1.676c-5.162-2.215-8.942-5.99-11.16-11.16C16.541 42.55 16 39.813 16 36.965c0-2.847.542-5.56 1.653-8.151 2.219-5.171 5.998-8.923 11.16-11.138A20.428 20.428 0 0 1 36.966 16c2.848 0 5.574.567 8.176 1.676 5.205 2.22 8.968 5.975 11.183 11.138zm-3.353 17.43c1.659-2.846 2.48-5.949 2.48-9.279s-.827-6.406-2.48-9.23c-1.654-2.825-3.907-5.07-6.751-6.729-2.828-1.648-5.925-2.48-9.255-2.48-3.329 0-6.406.827-9.23 2.48-2.824 1.654-5.083 3.899-6.728 6.728-1.64 2.82-2.458 5.902-2.458 9.231 0 2.504.473 4.919 1.447 7.188.977 2.278 2.284 4.26 3.927 5.902 1.642 1.642 3.605 2.94 5.878 3.926 2.274.988 4.662 1.47 7.165 1.47 3.33 0 6.427-.831 9.254-2.48 2.844-1.658 5.103-3.9 6.751-6.728zm-14.674-9.462l6.43 6.476c.494.496.528 1.263 0 1.79-.459.46-1.308.46-1.768 0l-6.866-6.865c-.275-.276-.39-.62-.344-1.034 0-.068-.047-.16-.047-.184V24.887c0-.712.598-1.286 1.263-1.286.712 0 1.332.574 1.332 1.286v11.895z"/>
    </g>
</svg>
