<svg xmlns="http://www.w3.org/2000/svg" width="74" height="74" viewBox="0 0 74 74">
    <g fill="none" fill-rule="evenodd">
        <circle cx="37" cy="37" r="37" fill="#4BD964"/>
        <path fill="#FFF" fill-rule="nonzero" d="M19.694 56.9a7.886 7.886 0 0 1-2.586-.428l-1.868-.646 1.435-1.36c1.9-1.798 2.38-3.873 2.41-5.427C15.803 45.4 14 40.858 14 36.2c0-11.413 10.586-20.7 23.6-20.7 13.012 0 23.6 9.287 23.6 20.7 0 11.414-10.588 20.7-23.6 20.7-3.875 0-7.697-.84-11.103-2.435-1.284.91-3.876 2.436-6.803 2.436zm6.521-5.253l.69.348c3.237 1.638 6.936 2.504 10.694 2.504 11.69 0 21.2-8.209 21.2-18.299s-9.51-18.3-21.2-18.3-21.2 8.21-21.2 18.3c0 4.193 1.688 8.293 4.755 11.543l.312.33.014.455c.053 1.631-.24 3.844-1.69 5.97 2.78-.044 5.334-1.978 5.822-2.369l.603-.482zm-.063-9.786c-.88 0-1.594-.069-2.146-.207-.551-.138-.932-.28-1.142-.423-.052-.053-.072-.174-.06-.364.013-.19.043-.387.09-.59.045-.203.104-.385.176-.54.072-.158.14-.231.207-.217.342.118.712.233 1.113.344.4.111.909.167 1.525.167.631 0 1.165-.09 1.606-.276.44-.184.66-.512.66-.984 0-.409-.145-.74-.434-.995-.288-.256-.807-.529-1.556-.816a11.11 11.11 0 0 1-1.152-.523 4.388 4.388 0 0 1-.955-.67 2.766 2.766 0 0 1-.65-.915c-.157-.354-.237-.774-.237-1.26 0-.394.077-.768.227-1.123.15-.355.384-.66.7-.916.314-.255.718-.46 1.21-.61.493-.151 1.08-.227 1.763-.227.446 0 .818.01 1.113.03.295.02.537.046.729.079.19.033.344.069.462.109.119.04.23.072.335.098.092.039.138.154.138.344 0 .19-.027.394-.079.611a2.264 2.264 0 0 1-.216.57c-.092.165-.184.234-.276.208a11.718 11.718 0 0 0-.916-.216 5.643 5.643 0 0 0-1.132-.118c-.749 0-1.263.105-1.545.315a1 1 0 0 0-.424.846c0 .381.158.687.473.916.315.229.807.462 1.476.699 1.064.42 1.848.902 2.354 1.447.505.545.758 1.23.758 2.058 0 .617-.118 1.13-.354 1.537a2.658 2.658 0 0 1-.946.964 4.105 4.105 0 0 1-1.348.503 8.224 8.224 0 0 1-1.547.145zm14.198-.098c-.275 0-.456-.046-.54-.138-.087-.091-.128-.268-.128-.532V34.2c-.525.853-.93 1.512-1.213 1.978-.283.467-.488.809-.62 1.025-.131.216-.21.345-.237.384-.026.04-.038.066-.038.08a4.81 4.81 0 0 1-.246.383c-.047.061-.142.089-.286.089h-.315c-.17 0-.283-.03-.335-.089a2.365 2.365 0 0 1-.236-.384l-2.01-3.426v6.972c0 .17-.029.306-.088.404-.059.099-.213.148-.463.148h-.826c-.184 0-.344-.03-.483-.089-.137-.059-.207-.252-.207-.581v-9.453c0-.263.05-.437.148-.522.098-.086.24-.128.423-.128h.985c.144 0 .266.019.364.059.099.04.2.138.306.295l2.618 4.175 2.619-4.136a.687.687 0 0 1 .611-.394h1.084c.25 0 .393.053.434.158.04.106.059.276.059.512v9.53c0 .197-.026.342-.079.435-.053.092-.204.137-.452.137h-.849zm6.559.098c-.881 0-1.595-.069-2.147-.207-.55-.138-.932-.28-1.141-.423-.053-.053-.073-.174-.06-.364.012-.19.041-.387.088-.59a2.67 2.67 0 0 1 .177-.54c.071-.159.14-.231.207-.217.341.118.713.233 1.112.344.4.112.909.167 1.526.167.63 0 1.164-.09 1.606-.276.438-.184.66-.512.66-.984 0-.409-.145-.74-.434-.995-.29-.256-.808-.529-1.556-.816-.408-.159-.79-.332-1.152-.523a4.407 4.407 0 0 1-.956-.67 2.773 2.773 0 0 1-.65-.915c-.158-.354-.236-.774-.236-1.26 0-.394.076-.768.226-1.123.151-.355.384-.66.7-.916.314-.255.718-.46 1.21-.61.493-.151 1.081-.227 1.763-.227.446 0 .818.01 1.112.03.296.02.538.046.73.079.189.033.344.069.463.109.117.039.23.072.335.098.091.039.137.154.137.344 0 .19-.027.394-.08.611a2.264 2.264 0 0 1-.214.57c-.093.165-.185.234-.277.208-.222-.066-.529-.138-.915-.216a5.647 5.647 0 0 0-1.132-.118c-.749 0-1.264.105-1.546.315-.282.21-.424.492-.424.846 0 .381.159.687.474.916.314.229.807.462 1.476.699 1.063.42 1.848.902 2.353 1.447.506.545.759 1.23.759 2.058 0 .617-.118 1.13-.354 1.537a2.658 2.658 0 0 1-.946.964 4.105 4.105 0 0 1-1.349.503 8.227 8.227 0 0 1-1.545.145z"/>
    </g>
</svg>
