<svg xmlns="http://www.w3.org/2000/svg" width="74" height="74" viewBox="0 0 74 74">
    <g fill="none" fill-rule="evenodd">
        <circle cx="37" cy="37" r="37" fill="#4BD964"/>
        <path fill="#FFF" fill-rule="nonzero" d="M57.98 24.845c0-.175-.038-.35-.115-.515a1.117 1.117 0 0 0-.78-.621l-19.613-9.592a1.155 1.155 0 0 0-1.011 0l-19.806 9.68A1.17 1.17 0 0 0 16 24.805v24.34c0 .446.25.854.655 1.048l19.806 9.68c.01 0 .01 0 .02.01.028.01.057.019.086.038.01 0 .019.01.038.01l.087.03c.01 0 .02.009.029.009.029.01.067.01.096.02h.029c.038 0 .087.009.125.009.039 0 .087 0 .125-.01h.03a.34.34 0 0 0 .095-.02c.01 0 .02-.009.03-.009l.086-.029c.01 0 .02-.01.039-.01a.34.34 0 0 0 .086-.039c.01 0 .01 0 .02-.01l19.863-9.708c.395-.194.655-.602.655-1.048V24.874c-.02-.01-.02-.02-.02-.03zm-21.019-8.389l17.178 8.398-6.326 3.097-17.178-8.398 6.326-3.097zm0 16.796l-17.177-8.398 8.204-4.01 17.177 8.399-8.204 4.01zm-18.65-6.524l17.495 8.554v21.68l-17.495-8.554v-21.68zm19.806 30.233v-21.68l8.213-4.019v5.67c0 .64.52 1.165 1.156 1.165.635 0 1.155-.524 1.155-1.165v-6.806l7.029-3.437v21.68L38.117 56.96z"/>
    </g>
</svg>
