<svg xmlns="http://www.w3.org/2000/svg" width="74" height="74" viewBox="0 0 74 74">
    <g fill="none" fill-rule="evenodd">
        <circle cx="37" cy="37" r="37" fill="#1A7AFE"/>
        <path fill="#FFF" fill-rule="nonzero" d="M58.294 33.798c.16 2.038-1.94 3.484-3.788 2.607l-9.238-4.4c-1.85-.881-2.046-3.428-.364-4.584l1.668-1.149c-9.45-9.369-25.671-2.672-25.671 10.706 0 8.309 6.76 15.068 15.068 15.068 4.81 0 9.22-2.216 12.098-6.08 1.557-2.094 4.895-1.27 5.285 1.333a2.929 2.929 0 0 1-.552 2.19c-3.943 5.297-10.234 8.458-16.83 8.458-11.562 0-20.97-9.406-20.97-20.97 0-11.562 9.408-20.968 20.97-20.968 5.963 0 11.579 2.523 15.527 6.874l1.836-1.263a2.632 2.632 0 0 1 2.647-.211 2.627 2.627 0 0 1 1.505 2.187l.81 10.202zM35.97 20.538a16.42 16.42 0 0 1 11.751 4.944l2.637-1.814A19.584 19.584 0 0 0 35.97 17.38c-10.805 0-19.598 8.79-19.598 19.598 0 10.807 8.793 19.597 19.598 19.597 6.165 0 12.045-2.955 15.73-7.904a1.577 1.577 0 0 0-.324-2.21 1.58 1.58 0 0 0-2.21.324c-3.136 4.216-7.947 6.633-13.196 6.633-9.065 0-16.44-7.375-16.44-16.44 0-9.065 7.375-16.44 16.44-16.44zm19.127 14.628a1.283 1.283 0 0 0 1.83-1.26l-.807-10.2a1.285 1.285 0 0 0-1.282-1.185c-.541 0 0-.272-9.156 6.03a1.283 1.283 0 0 0 .176 2.216l9.239 4.399zm-27.877-7.517h13.603c1.324 0 2.4 1.076 2.4 2.4v13.858c0 1.323-1.076 2.4-2.4 2.4H27.22a2.403 2.403 0 0 1-2.4-2.4V30.049c0-1.324 1.077-2.4 2.4-2.4zm4.03 1.371v3.96c1.223-.834.88-.823 2.772.47 1.887-1.29 1.546-1.306 2.771-.47v-3.96H31.25zm10.602 1.029a1.03 1.03 0 0 0-1.029-1.029h-2.658v5.26c0 .254-.141.487-.366.606-.47.248-.72-.05-2.048-.957-2.034 1.39-1.446 1.374-3.458 0l-1.341.917a.686.686 0 0 1-1.073-.566v-5.26h-2.659a1.03 1.03 0 0 0-1.028 1.029v13.858a1.03 1.03 0 0 0 1.028 1.029h13.603a1.03 1.03 0 0 0 1.029-1.029V30.049z"/>
    </g>
</svg>
