<svg xmlns="http://www.w3.org/2000/svg" width="74" height="74" viewBox="0 0 74 74">
    <g fill="none" fill-rule="evenodd">
        <circle cx="37" cy="37" r="37" fill="#4BD964"/>
        <path fill="#FFF" fill-rule="nonzero" d="M53.898 18.61A4.106 4.106 0 0 1 58 22.71v31.172A3.121 3.121 0 0 1 54.882 57H19.117A3.12 3.12 0 0 1 16 53.883V51.76a.82.82 0 0 1 .82-.82h2.22a6.712 6.712 0 0 1-2.344-5.096 6.734 6.734 0 0 1 6.726-6.727 6.734 6.734 0 0 1 6.727 6.727c0 2.035-.91 3.861-2.344 5.096h8.196a.82.82 0 0 1 0 1.64h-18.36v1.303c0 .814.662 1.476 1.476 1.476h33.02a3.099 3.099 0 0 1-.372-1.477v-1.301h-8.722a.82.82 0 0 1 0-1.641h9.542a.82.82 0 0 1 .82.82v2.122c0 .815.663 1.477 1.477 1.477.815 0 1.477-.662 1.477-1.477V22.711a2.464 2.464 0 0 0-2.46-2.461h-3.91v1.025a2.464 2.464 0 0 1-2.462 2.461 2.464 2.464 0 0 1-2.46-2.46V20.25H31.284v1.025a2.464 2.464 0 0 1-2.46 2.461 2.464 2.464 0 0 1-2.462-2.46V20.22a.822.822 0 0 1-.218.03h-3.269a2.464 2.464 0 0 0-2.46 2.46v2.708h29.572a.82.82 0 0 1 0 1.64H20.415v9.626a.82.82 0 0 1-1.64 0V22.71a4.106 4.106 0 0 1 4.101-4.102h3.269c.075 0 .149.011.218.03v-1.178A2.464 2.464 0 0 1 28.824 15a2.464 2.464 0 0 1 2.461 2.46v1.15h13.781v-1.15A2.464 2.464 0 0 1 47.527 15a2.464 2.464 0 0 1 2.461 2.46v1.15h3.91zm-24.253 2.665v-3.814a.821.821 0 0 0-1.641 0v3.814a.821.821 0 0 0 1.64 0zm18.703 0v-3.814a.821.821 0 0 0-1.641 0v3.814a.821.821 0 0 0 1.64 0zM18.336 45.844a5.092 5.092 0 0 0 5.086 5.086 5.092 5.092 0 0 0 5.086-5.086 5.092 5.092 0 0 0-5.086-5.086 5.092 5.092 0 0 0-5.086 5.086zm36.08-20.186c.153.153.24.365.24.58a.827.827 0 0 1-.24.58.826.826 0 0 1-.58.24.827.827 0 0 1-.58-.24.826.826 0 0 1-.24-.58c0-.215.088-.427.24-.58a.826.826 0 0 1 .58-.24c.216 0 .427.088.58.24zM40.499 51.18c.152.153.24.364.24.58a.83.83 0 0 1-.24.58.825.825 0 0 1-1.16 0 .828.828 0 0 1-.24-.58c0-.216.087-.427.24-.58a.826.826 0 0 1 1.16 0zm-5.94-11.242a3.12 3.12 0 0 1 3.117 3.117 3.12 3.12 0 0 1-3.117 3.117 3.12 3.12 0 0 1-3.117-3.117 3.12 3.12 0 0 1 3.117-3.117zm0 4.593c.814 0 1.477-.662 1.477-1.476s-.663-1.477-1.477-1.477c-.814 0-1.476.663-1.476 1.477 0 .814.662 1.476 1.476 1.476zm7.656-4.593a3.12 3.12 0 0 1 3.118 3.117 3.12 3.12 0 0 1-3.118 3.117 3.12 3.12 0 0 1-3.117-3.117 3.12 3.12 0 0 1 3.117-3.117zm0 4.593c.815 0 1.477-.662 1.477-1.476s-.662-1.477-1.477-1.477c-.814 0-1.476.663-1.476 1.477 0 .814.662 1.476 1.476 1.476zm7.657-4.593a3.12 3.12 0 0 1 3.117 3.117 3.12 3.12 0 0 1-3.117 3.117 3.12 3.12 0 0 1-3.117-3.117 3.12 3.12 0 0 1 3.117-3.117zm0 4.593c.814 0 1.476-.662 1.476-1.476s-.662-1.477-1.476-1.477-1.477.663-1.477 1.477c0 .814.663 1.476 1.477 1.476zm-22.97-13.125a3.12 3.12 0 0 1 3.118 3.117 3.12 3.12 0 0 1-3.117 3.118 3.12 3.12 0 0 1-3.117-3.118 3.12 3.12 0 0 1 3.117-3.117zm0 4.594c.815 0 1.477-.662 1.477-1.477 0-.814-.662-1.476-1.476-1.476s-1.477.662-1.477 1.476c0 .815.663 1.477 1.477 1.477zm15.313-4.594a3.12 3.12 0 0 1 3.118 3.117 3.12 3.12 0 0 1-3.118 3.118 3.12 3.12 0 0 1-3.117-3.118 3.12 3.12 0 0 1 3.117-3.117zm0 4.594c.815 0 1.477-.662 1.477-1.477 0-.814-.662-1.476-1.477-1.476-.814 0-1.476.662-1.476 1.476 0 .815.662 1.477 1.476 1.477zm7.657-4.594a3.12 3.12 0 0 1 3.117 3.117 3.12 3.12 0 0 1-3.117 3.118 3.12 3.12 0 0 1-3.117-3.118 3.12 3.12 0 0 1 3.117-3.117zm0 4.594c.814 0 1.476-.662 1.476-1.477 0-.814-.662-1.476-1.476-1.476s-1.477.662-1.477 1.476c0 .815.663 1.477 1.477 1.477zm-15.313-4.594a3.12 3.12 0 0 1 3.117 3.117 3.12 3.12 0 0 1-3.117 3.118 3.12 3.12 0 0 1-3.117-3.118 3.12 3.12 0 0 1 3.117-3.117zm0 4.594c.814 0 1.477-.662 1.477-1.477 0-.814-.663-1.476-1.477-1.476-.814 0-1.476.662-1.476 1.476 0 .815.662 1.477 1.476 1.477zm-8.215 7.845c.32.32.32.84 0 1.16l-3.251 3.251a.82.82 0 0 1-1.16 0l-1.493-1.493a.82.82 0 0 1 1.16-1.16l.913.913 2.671-2.671a.82.82 0 0 1 1.16 0z"/>
    </g>
</svg>
