<svg xmlns="http://www.w3.org/2000/svg" width="74" height="74" viewBox="0 0 74 74">
    <g fill="none" fill-rule="evenodd">
        <circle cx="37" cy="37" r="37" fill="#3772F0"/>
        <path fill="#FFF" fill-rule="nonzero" d="M30.154 48.148a.808.808 0 0 1-.223.74.785.785 0 0 1-.267.177.77.77 0 0 1-.313.064.808.808 0 0 1-.315-.064.827.827 0 0 1-.49-.597.808.808 0 0 1 .225-.74.785.785 0 0 1 .265-.177.808.808 0 0 1 .77.075.785.785 0 0 1 .226.227.832.832 0 0 1 .122.295zm23.58.253c.914 2.344-.885 3.91-2.092 4.465a.802.802 0 0 1-.067.027l-12.632 4.523a6.539 6.539 0 0 1-2.718.582 7.363 7.363 0 0 1-2.675-.513c-2.563-1.152-3.986-1.973-4.928-2.516-1.225-.706-1.663-.959-2.996-1.075v.236a.82.82 0 0 1-.82.82h-2.288v.708a.82.82 0 0 1-.82.82H16.82a.82.82 0 0 1-.82-.82V45.316a.82.82 0 0 1 .82-.82h7.593c1.085-1.603 2.98-3.073 5.124-3.073 3.066 0 4.704 1.73 5.227 2.406l6.282 2.132.022.007c1.165.433 1.99 1.284 2.32 2.285l5.715-1.58c2.095-.716 3.866-.063 4.62 1.704a.796.796 0 0 1 .01.024zm-32.857 6.437v-8.702h-3.236v8.702h3.236zm3.108-1.528v-7.174h-1.467v7.174h1.467zm27.001-1.948c.364-.174 1.762-.947 1.224-2.353-.52-1.197-1.688-1.088-2.577-.784l-6.16 1.706a3.217 3.217 0 0 1-1.589 2.143 3.221 3.221 0 0 1-2.485.28l-7.362-2.334a.82.82 0 1 1 .495-1.564l7.35 2.33c.407.112.835.06 1.204-.145.373-.208.643-.548.76-.96.252-.888-.298-1.78-1.339-2.17l-6.52-2.214a.82.82 0 0 1-.435-.347c-.046-.073-1.227-1.886-4.015-1.886-1.626 0-3.134 1.304-3.911 2.579v6.607c1.826.15 2.473.524 3.816 1.298.965.557 2.287 1.318 4.762 2.433.655.254 2.327.738 4.086-.07a.836.836 0 0 1 .07-.029l12.626-4.52zM45.454 26.79a.807.807 0 0 1-.047.473.785.785 0 0 1-.302.368.832.832 0 0 1-.456.139.808.808 0 0 1-.313-.063.81.81 0 0 1-.444-.444.77.77 0 0 1-.063-.313.808.808 0 0 1 .063-.315.832.832 0 0 1 .302-.367.81.81 0 0 1 .295-.122.812.812 0 0 1 .74.224.785.785 0 0 1 .178.265c.02.05.036.102.047.155zm11.726-8.01a.82.82 0 0 1 .82.82v10.342a.82.82 0 0 1-.82.82h-7.593c-1.085 1.603-2.98 3.073-5.124 3.073a7.85 7.85 0 0 1-.675-.03l-8.34 8.34c-.325.326-.91.25-1.16 0l-15.61-15.609a.814.814 0 0 1 0-1.16l9.136-9.135a.82.82 0 0 1 1.16 0l2.782 2.782 3.301-1.181c2.336-1.059 4.522-.413 5.357-.085l.036.016c2.563 1.152 3.986 1.973 4.928 2.516 1.225.706 1.663.959 2.996 1.075v-.236a.82.82 0 0 1 .82-.82h2.288V19.6a.82.82 0 0 1 .82-.82h4.878zm-28.786-.799l-1.87 1.87a3.54 3.54 0 0 0 1.87.528c.671 0 1.314-.184 1.87-.528l-1.87-1.87zm-6.105 9.845a3.54 3.54 0 0 0 .527-1.87c0-.671-.184-1.314-.527-1.87l-1.87 1.87 1.87 1.87zm12.58 12.58l1.869-1.87a3.572 3.572 0 0 0-3.739 0l1.87 1.87zm3.05-3.052l1.874-1.873a5.237 5.237 0 0 1-.869-4.158l-2.77-.94a4.658 4.658 0 0 1-1.216 2.117 4.662 4.662 0 0 1-3.307 1.367 4.661 4.661 0 0 1-3.306-1.367 4.675 4.675 0 1 1 2.454-7.904 3.215 3.215 0 0 1 1.336-1.412c.348-.194.722-.32 1.105-.377l-1.775-1.774c-.88.64-1.939.986-3.051.986a5.164 5.164 0 0 1-3.052-.986l-1.871 1.871c.64.881.986 1.94.986 3.052s-.346 2.17-.986 3.051l8.346 8.347a5.213 5.213 0 0 1 6.103 0zm-4.987-8.064c-1.399-.52-2.306-1.643-2.458-2.903a3.039 3.039 0 0 0-.99 4.953 3.039 3.039 0 0 0 5.11-1.486l-1.64-.557-.022-.007zm8.043 5.009l.923-.923a6.378 6.378 0 0 1-1.447-.783c.028.601.207 1.19.524 1.706zm7.4-4.684v-6.607c-1.827-.151-2.474-.524-3.817-1.298-.965-.557-2.287-1.319-4.763-2.433-.655-.255-2.326-.738-4.085.07a.787.787 0 0 1-.033.014l-.008.003a.91.91 0 0 1-.029.011l-2.6.932 3.026 3.026.001.001.051.051 5.845 1.853a.82.82 0 0 1-.495 1.564l-7.35-2.33a1.587 1.587 0 0 0-1.204.145 1.588 1.588 0 0 0-.759.956v.004c-.253.889.297 1.78 1.338 2.17l6.522 2.214c.2.068.357.205.452.376.01.016.082.109.099.133.314.4 1.267 1.406 3.038 1.663h.004c.266.04.551.06.855.06 1.626 0 3.134-1.304 3.911-2.578zm3.107-.494V21.95h-1.467v7.173h1.467zm4.877 0v-8.701h-3.236v8.701h3.236z"/>
    </g>
</svg>
