<svg xmlns="http://www.w3.org/2000/svg" width="74" height="74" viewBox="0 0 74 74">
    <g fill="none" fill-rule="evenodd">
        <circle cx="37" cy="37" r="37" fill="#FFA002"/>
        <path fill="#FFF" fill-rule="nonzero" d="M24.569 43.954c4.148 4.958 9.14 8.861 14.84 11.624 2.17 1.028 5.07 2.248 8.304 2.457.2.009.392.017.592.017 2.17 0 3.913-.75 5.333-2.291a.19.19 0 0 0 .035-.044c.505-.61 1.08-1.159 1.681-1.743.41-.392.828-.801 1.23-1.22 1.855-1.934 1.855-4.391-.018-6.265l-5.237-5.237c-.89-.923-1.952-1.411-3.068-1.411-1.115 0-2.187.488-3.102 1.403l-3.12 3.12c-.287-.166-.583-.315-.862-.454-.348-.174-.67-.34-.958-.523-2.84-1.804-5.42-4.156-7.886-7.18-1.246-1.577-2.083-2.902-2.667-4.252.82-.74 1.586-1.516 2.327-2.275.261-.27.532-.54.802-.81.94-.941 1.446-2.03 1.446-3.137 0-1.106-.497-2.196-1.446-3.137L30.198 20c-.305-.305-.593-.602-.889-.907a47.796 47.796 0 0 0-1.769-1.751c-.897-.88-1.952-1.342-3.067-1.342-1.107 0-2.17.462-3.102 1.35l-3.259 3.26c-1.185 1.185-1.856 2.622-1.995 4.287-.166 2.082.218 4.296 1.21 6.97 1.526 4.14 3.826 7.982 7.242 12.087zM18.243 25.08c.104-1.16.549-2.126 1.385-2.963l3.242-3.241c.505-.488 1.063-.741 1.603-.741.532 0 1.072.253 1.569.758.583.54 1.132 1.107 1.725 1.708.296.305.601.61.906.923l2.597 2.597c.54.54.819 1.09.819 1.63 0 .54-.279 1.089-.82 1.63-.27.27-.54.548-.81.818-.81.82-1.568 1.595-2.405 2.335l-.043.044c-.723.723-.61 1.412-.436 1.934.009.027.018.044.026.07.671 1.612 1.604 3.146 3.059 4.976 2.614 3.224 5.367 5.725 8.4 7.65.375.244.775.436 1.15.628.349.174.671.34.959.523.034.017.06.034.095.052.288.148.567.218.846.218.697 0 1.15-.445 1.298-.593l3.259-3.259c.505-.505 1.054-.775 1.594-.775.663 0 1.203.41 1.543.775l5.254 5.246c1.046 1.045 1.037 2.178-.026 3.285-.366.392-.75.767-1.159 1.159-.61.592-1.246 1.202-1.821 1.89-1.002 1.081-2.196 1.587-3.738 1.587-.148 0-.305-.01-.453-.018-2.858-.183-5.516-1.298-7.512-2.248-5.42-2.623-10.177-6.344-14.124-11.066-3.25-3.913-5.438-7.555-6.884-11.459-.898-2.396-1.238-4.322-1.098-6.073z"/>
    </g>
</svg>
