<svg xmlns="http://www.w3.org/2000/svg" width="74" height="74" viewBox="0 0 74 74">
    <g fill="none" fill-rule="evenodd">
        <circle cx="37" cy="37" r="37" fill="#EE446D"/>
        <path fill="#FFF" fill-rule="nonzero" d="M37.303 15C27.763 15 20 22.762 20 32.304c0 2.488.51 4.865 1.513 7.063 4.326 9.466 12.62 19.461 15.06 22.299a.963.963 0 0 0 1.46 0c2.439-2.837 10.733-12.832 15.06-22.3 1.005-2.197 1.514-4.574 1.514-7.062C54.606 22.762 46.843 15 37.303 15zm0 26.291c-4.956 0-8.988-4.032-8.988-8.988 0-4.956 4.032-8.988 8.988-8.988 4.956 0 8.988 4.032 8.988 8.988 0 4.956-4.032 8.988-8.988 8.988z"/>
    </g>
</svg>
