<svg xmlns="http://www.w3.org/2000/svg" width="74" height="74" viewBox="0 0 74 74">
    <g fill="none" fill-rule="evenodd">
        <g>
            <circle cx="37" cy="37" r="37" fill="#FF5934"/>
            <path fill="#FFF" fill-rule="nonzero" d="M46.516 31.323a.71.71 0 0 1-.71-.71v-2.839a.71.71 0 0 1 .71-.71h9.936a.71.71 0 0 1 .71.71v2.839a.71.71 0 0 1-.71.71h-9.936zm.71-2.84v1.42h8.516v-1.42h-8.516zm-1.42 4.259h11.355v1.42H45.806v-1.42zm7.807 3.548v1.42h2.129v1.419h-3.194a1.066 1.066 0 0 0 0 2.129h.71a2.487 2.487 0 0 1 2.484 2.484 2.48 2.48 0 0 1-2.13 2.448v1.455h-1.418v-1.42h-2.13v-1.419h3.194c.587 0 1.065-.477 1.065-1.064 0-.587-.478-1.065-1.065-1.065h-.71a2.487 2.487 0 0 1-2.483-2.483 2.48 2.48 0 0 1 2.129-2.448V36.29h1.419zM28.065 46.935h8.516v1.42h-8.516v-1.42zm11.354 0h8.516v1.42H39.42v-1.42zM24.516 29.903a2.842 2.842 0 0 1 2.839-2.838 2.842 2.842 0 0 1 2.839 2.838 2.842 2.842 0 0 1-2.84 2.839 2.842 2.842 0 0 1-2.838-2.839zm2.839-1.42a1.42 1.42 0 0 0-1.42 1.42 1.42 1.42 0 0 0 2.839 0 1.42 1.42 0 0 0-1.42-1.42zM30.194 37a2.842 2.842 0 0 1-2.84 2.839A2.842 2.842 0 0 1 24.517 37a2.842 2.842 0 0 1 2.839-2.839A2.842 2.842 0 0 1 30.194 37zm-2.84 1.42a1.42 1.42 0 0 0 1.42-1.42 1.42 1.42 0 0 0-1.42-1.42A1.42 1.42 0 0 0 25.936 37c0 .783.637 1.42 1.42 1.42zm4.259-9.936h12.774v1.42H31.613v-1.42zm0 2.839h12.774v1.419H31.613v-1.42zm0 2.838h12.774v1.42H31.613v-1.42zm9.226 8.516H35.16a.71.71 0 0 1-.71-.71V39.13a.71.71 0 0 1 .71-.71h5.678a.71.71 0 0 1 .71.71v2.839a.71.71 0 0 1-.71.71zM35.87 39.84v1.42h4.258v-1.42h-4.258zm23.42-18.452a.71.71 0 0 1 .709.71v28.387a.71.71 0 0 1-.71.71H21.677v2.129c0 .17-.06.333-.17.462l-4.259 4.967A.71.71 0 0 1 16 58.29V17.838A2.842 2.842 0 0 1 18.839 15c1.319 0 2.42.908 2.738 2.129h2.23a.71.71 0 0 1 .71.71v3.548H59.29zm-.71 1.42H24.516v1.419h34.065v-1.42zM20.258 50.483v-1.42H17.42v1.42h2.84zm0-28.387v-1.42H17.42v26.968h2.84V22.097zm1.42.71v1.419h1.419v-1.42h-1.42zm1.419-1.42v-2.839h-1.42v2.84h1.42zm-5.678-3.548v1.42h2.84v-1.42a1.42 1.42 0 0 0-1.42-1.42 1.42 1.42 0 0 0-1.42 1.42zm0 38.533l2.84-3.312v-1.157h-2.84v4.47zm41.162-6.598V25.645H24.516v1.42h-1.42v-1.42h-1.419v24.13h36.904z"/>
        </g>
    </g>
</svg>
