<svg xmlns="http://www.w3.org/2000/svg" width="74" height="74" viewBox="0 0 74 74">
    <g fill="none" fill-rule="evenodd">
        <circle cx="37" cy="37" r="37" fill="#1CDBBA"/>
        <path fill="#FFF" fill-rule="nonzero" d="M61.9 33.806v14.826a5.31 5.31 0 0 1-5.302 5.302H16.302A5.31 5.31 0 0 1 11 48.632v-23.33A5.31 5.31 0 0 1 16.302 20h40.296a5.31 5.31 0 0 1 5.302 5.302v8.504zm-48.78 1.04v13.786a3.185 3.185 0 0 0 3.182 3.18h40.296a3.185 3.185 0 0 0 3.182-3.18V34.846H13.12zm0-8.483h46.66v-1.06a3.185 3.185 0 0 0-3.182-3.182H16.302a3.185 3.185 0 0 0-3.181 3.181v1.06zm46.66 6.362v-4.242H13.12v4.242h46.66zM31.148 41.21a1.06 1.06 0 0 1 0 2.12H18.423a1.06 1.06 0 0 1 0-2.12h12.725zm0 4.241a1.06 1.06 0 0 1 0 2.121H18.423a1.06 1.06 0 0 1 0-2.12h12.725zm21.209-6.362a3.185 3.185 0 0 1 3.181 3.181v2.12a3.185 3.185 0 0 1-3.181 3.182h-2.121a3.185 3.185 0 0 1-3.181-3.181v-2.121a3.185 3.185 0 0 1 3.18-3.181h2.122zm1.06 5.302v-2.12a1.06 1.06 0 0 0-1.06-1.061h-2.121a1.06 1.06 0 0 0-1.06 1.06v2.12c0 .586.475 1.061 1.06 1.061h2.12a1.06 1.06 0 0 0 1.061-1.06z"/>
    </g>
</svg>
