<svg xmlns="http://www.w3.org/2000/svg" width="74" height="74" viewBox="0 0 74 74">
    <g fill="none" fill-rule="evenodd">
        <g>
            <circle cx="37" cy="37" r="37" fill="#F92C56"/>
            <path fill="#FFF" fill-rule="nonzero" d="M33.624 53.565a.829.829 0 0 1 .239.58.819.819 0 0 1-.815.82.82.82 0 0 1 0-1.64c.214 0 .424.087.576.24zm10.953-35.277c.45 0 .815.368.815.82 0 .454-.365.821-.815.821h-5.119a.818.818 0 0 1-.815-.82c0-.453.365-.82.815-.82h5.119zm8.53 16.251a.818.818 0 0 1-.815-.82V22.238h-20.55v19.71c0 .606.49 1.099 1.094 1.099.234 0 .466-.078.653-.218l5.15-3.86a2.833 2.833 0 0 1 4.228.982c.49.956.411 2.094-.207 2.97l-2.594 3.677h12.226v-6.06c0-.453.365-.82.816-.82.45 0 .815.367.815.82v10.067a2.96 2.96 0 0 1-2.948 2.965H37.73v3.61c0 .453-.365.82-.816.82a.818.818 0 0 1-.815-.82V51.19H21.63v5.989c0 .453-.364.82-.815.82a.818.818 0 0 1-.815-.82V51.19c0-.904.732-1.64 1.63-1.64h.734v-8.578c0-3.183.734-6.377 2.123-9.236a21.141 21.141 0 0 1 5.625-7.107v-5.664A2.96 2.96 0 0 1 33.06 16h17.915a2.96 2.96 0 0 1 2.948 2.966v14.753c0 .453-.365.82-.815.82zm-.815 13.7H38.92l-.033-.002a8.014 8.014 0 0 1-1.815 1.64c.4.299.66.776.66 1.314v.739h13.244c.726 0 1.317-.595 1.317-1.325v-2.367zm-19.456-3.552a2.735 2.735 0 0 1-2.724-2.74V26.8c-3.907 3.658-6.117 8.734-6.117 14.173v8.578h8.696a6.372 6.372 0 0 0 5.197-2.701l3.442-4.878c.268-.38.3-.854.088-1.268a1.194 1.194 0 0 0-1.079-.661c-.26 0-.517.086-.726.242l-5.15 3.86a2.732 2.732 0 0 1-1.627.542zm-1.093-24.09h20.55v-1.631c0-.73-.592-1.325-1.318-1.325H33.06c-.726 0-1.317.594-1.317 1.325v1.631zm10.85 28.837a.828.828 0 0 1 .24.58.815.815 0 0 1-1.392.58.827.827 0 0 1 0-1.16.819.819 0 0 1 .576-.24c.215 0 .425.088.577.24zm5.57-20.409c.343.424.477.973.368 1.508l-1.073 5.242a1.808 1.808 0 0 1-1.762 1.444h-7.358c-.849 0-1.59-.608-1.761-1.444l-1.073-5.242a1.81 1.81 0 0 1 .368-1.508 1.787 1.787 0 0 1 1.394-.666h2.228l.69-1.203a.813.813 0 0 1 1.114-.3c.39.227.524.728.299 1.12l-.22.383h1.28l-.219-.382a.823.823 0 0 1 .299-1.121.813.813 0 0 1 1.113.3l.69 1.203h2.23c.542 0 1.05.243 1.393.666zm-1.23 1.177a.165.165 0 0 0-.034-.14.162.162 0 0 0-.13-.062h-1.286l.463.807a.823.823 0 0 1-.706 1.23.814.814 0 0 1-.707-.41L43.6 30h-3.163l-.934 1.627a.814.814 0 0 1-1.114.3.823.823 0 0 1-.299-1.12l.463-.807h-1.286a.162.162 0 0 0-.13.062.164.164 0 0 0-.034.14l1.072 5.242a.168.168 0 0 0 .164.134h7.359c.079 0 .148-.056.164-.134l1.072-5.242zm6.751 6.218a.829.829 0 0 1 .24.58.819.819 0 0 1-.815.82.82.82 0 0 1-.001-1.64c.214 0 .424.087.576.24z"/>
        </g>
    </g>
</svg>
