<svg xmlns="http://www.w3.org/2000/svg" width="74" height="74" viewBox="0 0 74 74">
    <g fill="none" fill-rule="evenodd">
        <circle cx="37" cy="37" r="37" fill="#1A7AFE"/>
        <path fill="#FFF" fill-rule="nonzero" d="M24.648 36.582a.918.918 0 1 1 0 1.837.918.918 0 0 1 0-1.837zm34.878-4.034c-.125.49-.031.923.239 1.28A6.023 6.023 0 0 1 61 37.5a6.03 6.03 0 0 1-1.237 3.675 1.44 1.44 0 0 0-.246 1.241 6.056 6.056 0 0 1-.264 3.866c-.51 1.23-1.557 2.419-2.733 3.106a1.44 1.44 0 0 0-.702 1.052c-.19 1.398-.834 2.765-1.722 3.655-.89.888-2.257 1.533-3.66 1.724-.44.06-.823.317-1.049.703-.686 1.176-1.876 2.223-3.105 2.731-2.155.895-3.722.217-4.233.217-.314 0-.625.104-.876.294A6.023 6.023 0 0 1 37.5 61c-1.34 0-2.61-.428-3.676-1.238a1.458 1.458 0 0 0-1.24-.245c-1.54.405-3.102.13-4.05-.264-1.129-.467-2.166-1.438-2.922-2.733a1.44 1.44 0 0 0-1.053-.702c-1.397-.19-2.764-.834-3.654-1.722-.89-.89-1.533-2.258-1.724-3.66a1.442 1.442 0 0 0-.704-1.05c-1.056-.616-1.985-1.748-2.547-3.104-.51-1.235-.793-2.572-.446-3.873.112-.427.022-.88-.249-1.236A6.023 6.023 0 0 1 14 37.5a6.03 6.03 0 0 1 1.237-3.675c.49-.646.229-1.243.152-1.67-.225-1.206-.095-2.527.358-3.621.467-1.128 1.438-2.166 2.733-2.922a1.44 1.44 0 0 0 .702-1.052c.19-1.398.834-2.765 1.722-3.655.89-.889 2.258-1.533 3.66-1.724.44-.06.823-.317 1.049-.703.756-1.294 1.793-2.264 2.922-2.731 1.09-.454 2.654-.63 4.052-.263.424.111.889.018 1.24-.248A6.023 6.023 0 0 1 37.5 14c1.34 0 2.61.428 3.676 1.239.35.264.814.356 1.24.244a6.054 6.054 0 0 1 3.867.264c1.228.51 2.418 1.557 3.105 2.733.225.385.609.64 1.052.702 1.398.19 2.765.834 3.655 1.722.889.89 1.533 2.258 1.724 3.66.06.44.317.823.703 1.049 1.294.756 2.264 1.793 2.731 2.922.398.96.546 2.102.422 3.191a.913.913 0 0 1-.149.822zM58.3 40.066a4.21 4.21 0 0 0 .864-2.566c0-.934-.298-1.82-.862-2.563a3.267 3.267 0 0 1-.668-2.028H17.366a3.264 3.264 0 0 1-.667 2.025 4.211 4.211 0 0 0-.863 2.566 4.2 4.2 0 0 0 .862 2.563c.45.594.679 1.304.668 2.027h40.268a3.262 3.262 0 0 1 .666-2.024zm-30.85 3.86h-4.445c2.555 5.626 8.337 9.455 14.495 9.455 6.158 0 11.94-3.83 14.495-9.456H47.55c-2.188 3.41-5.99 5.509-10.051 5.509-4.06 0-7.863-2.098-10.05-5.508zm2.268-.001a10.14 10.14 0 0 0 7.782 3.673 10.14 10.14 0 0 0 7.782-3.673H29.718zm17.833-12.85h4.444c-2.555-5.627-8.337-9.456-14.495-9.456-6.158 0-11.94 3.83-14.495 9.455h4.444c2.188-3.41 5.99-5.508 10.051-5.508 4.06 0 7.863 2.098 10.05 5.508zm-2.269 0a10.14 10.14 0 0 0-7.782-3.673 10.14 10.14 0 0 0-7.782 3.672h15.564zm-27.839-1.839a4.657 4.657 0 0 0-.323 1.838h3.89c2.66-6.68 9.347-11.29 16.49-11.29 7.143 0 13.83 4.61 16.49 11.29h3.89a4.65 4.65 0 0 0-.323-1.837c-.31-.749-1.025-1.492-1.961-2.039A3.265 3.265 0 0 1 54 24.812c-.137-1.004-.598-2.003-1.203-2.61-.606-.604-1.605-1.065-2.605-1.2a3.266 3.266 0 0 1-2.389-1.595c-.48-.823-1.373-1.612-2.223-1.964a4.216 4.216 0 0 0-2.698-.184 3.312 3.312 0 0 1-2.816-.558 4.203 4.203 0 0 0-2.566-.865c-.934 0-1.82.298-2.563.862a3.311 3.311 0 0 1-2.815.562c-1.025-.27-2.18-.11-2.884.183-.75.31-1.493 1.025-2.04 1.961A3.262 3.262 0 0 1 24.812 21c-1.004.137-2.003.598-2.61 1.203-.604.606-1.065 1.605-1.2 2.605a3.268 3.268 0 0 1-1.595 2.389c-.938.547-1.654 1.29-1.964 2.04zM57.557 45.58c.22-.53.328-1.092.323-1.654h-3.89c-2.66 6.68-9.347 11.29-16.49 11.29-7.143 0-13.83-4.61-16.49-11.29h-3.827c.044.496.19 1.043.444 1.653.411.993 1.059 1.803 1.777 2.222A3.269 3.269 0 0 1 21 50.188c.137 1.004.598 2.003 1.203 2.61.606.604 1.605 1.065 2.605 1.2 1.008.14 1.878.721 2.389 1.596.547.937 1.29 1.653 2.04 1.963.692.287 1.851.455 2.881.184a3.31 3.31 0 0 1 2.816.558 4.205 4.205 0 0 0 2.566.865 4.2 4.2 0 0 0 2.563-.862 3.307 3.307 0 0 1 1.986-.668c.89 0 1.894.602 3.53-.077.85-.352 1.743-1.14 2.223-1.961A3.264 3.264 0 0 1 50.188 54c1.02-.139 1.994-.589 2.609-1.203.605-.606 1.066-1.605 1.202-2.605a3.267 3.267 0 0 1 1.594-2.389c.823-.48 1.612-1.374 1.964-2.223zm-7.205-8.998a.918.918 0 1 1 0 1.836H28.32a.918.918 0 1 1 0-1.836h22.032z"/>
    </g>
</svg>
