<svg xmlns="http://www.w3.org/2000/svg" width="74" height="74" viewBox="0 0 74 74">
    <g fill="none" fill-rule="evenodd">
        <circle cx="37" cy="37" r="37" fill="#30BFFB"/>
        <path fill="#FFF" fill-rule="nonzero" d="M56.766 23.796a2.622 2.622 0 0 1 2.604 2.614v29.146a2.722 2.722 0 0 1-2.604 2.722H45.414a3.63 3.63 0 0 0 1.253-2.722v-.908h11.796V27.426H46.667v-3.63h10.1zm-4.655 2.269v-.454H49.39v.454h2.722zm-1.361 31.76a1.361 1.361 0 1 0 0-2.723 1.361 1.361 0 0 0 0 2.722zm-17.105.453c.321-.258.6-.564.826-.908h8.748a1.642 1.642 0 0 0 1.633-1.633V23.615a1.642 1.642 0 0 0-1.633-1.634H41.62c-.136.019-.399.1-.399.327v.735a.835.835 0 0 1-.907.753H34.87v-2.722h8.167a2.722 2.722 0 0 1 2.722 2.722v31.76a2.722 2.722 0 0 1-2.722 2.722h-9.392zM38.5 22.435a.227.227 0 0 0-.227-.227h-2.268a.227.227 0 0 0 0 .454h2.268a.227.227 0 0 0 .227-.227zm-7.568-5.898a3.04 3.04 0 0 1 3.031 3.03v35.68a3.049 3.049 0 0 1-3.049 3.03H17.05A3.049 3.049 0 0 1 14 55.248v-35.68a3.04 3.04 0 0 1 3.03-3.03h13.902zm-4.682 1.025a.336.336 0 0 0-.336.345.345.345 0 1 0 .336-.345zm-3.856.309v.063c0 .106.085.191.19.191h2.786a.19.19 0 0 0 .19-.19v-.064a.19.19 0 0 0-.19-.19h-2.786a.19.19 0 0 0-.19.19zm10.662 37.685V19.259a1.815 1.815 0 0 0-1.815-1.815h-1.37c-.146.019-.445.11-.445.363v.608a.907.907 0 0 1-1.035.844h-8.81a.907.907 0 0 1-1.053-.844v-.59c-.027-.254-.3-.38-.445-.38h-1.36a1.815 1.815 0 0 0-1.816 1.814v36.297c0 1.002.813 1.814 1.815 1.814h14.519a1.815 1.815 0 0 0 1.815-1.814z"/>
        <path d="M14 12h45.37v49H14z"/>
    </g>
</svg>
