<?xml version="1.0" encoding="UTF-8"?>
<svg width="14px" height="16px" viewBox="0 0 14 16" version="1.1" xmlns="http://www.w3.org/2000/svg" xmlns:xlink="http://www.w3.org/1999/xlink">
    <!-- Generator: Sketch 55.1 (78136) - https://sketchapp.com -->
    <title>dostavkabesplatno</title>
    <desc>Created with Sketch.</desc>
    <g id="desktop" stroke="none" stroke-width="1" fill="none" fill-rule="evenodd" opacity="0.200000003">
        <g id="product" transform="translate(-705.000000, -606.000000)" fill="#000000" fill-rule="nonzero">
            <g id="Group-33" transform="translate(705.000000, 606.000000)">
                <g id="Group-30">
                    <g id="126089">
                        <path d="M8.27122642,8.08301887 L13.9801887,4.78773585 L13.9801887,12.2070755 L7.55801887,15.9150943 L7.55801887,8.49575472 L8.27122642,8.08301887 Z M9.43349057,1.42971698 L2.83632075,5.24009434 L0.363207547,3.81037736 L6.96367925,-1.99840144e-14 L9.43349057,1.42971698 Z M13.5608491,3.81037736 L9.42028302,6.20424528 L6.96367925,7.62075472 L4.49386792,6.19433962 L4.11745283,5.9995283 L10.7146226,2.18915094 L13.5608491,3.81037736 Z M3.61886792,8.72688679 L3.61886792,6.92075472 L6.3759434,8.50896226 L6.3759434,15.8754717 L-2.46025422e-13,12.1938679 L-2.46025422e-13,4.82735849 L2.43679245,6.23066038 L2.43679245,8.11933962 L3.61886792,8.72688679 Z" id="dostavkabesplatno"></path>
                    </g>
                </g>
            </g>
        </g>
    </g>
</svg>