<svg width="100" height="100" viewBox="0 0 100 100" fill="none" xmlns="http://www.w3.org/2000/svg">
<path fill-rule="evenodd" clip-rule="evenodd" d="M50 100C77.6142 100 100 77.6142 100 50C100 22.3858 77.6142 0 50 0C22.3858 0 0 22.3858 0 50C0 77.6142 22.3858 100 50 100Z" fill="#EE446D"/>
<path fill-rule="evenodd" clip-rule="evenodd" d="M72 32.2222C72 30.9949 71.015 30 69.8 30H30.2C28.985 30 28 30.9949 28 32.2222V60.3704C28 61.5977 28.985 62.5926 30.2 62.5926H47.0667V65.5556H41.2C39.985 65.5556 39 66.5505 39 67.7778V69.2593C39 69.6683 39.3284 70 39.7333 70H60.2667C60.6716 70 61 69.6683 61 69.2593V67.7778C61 66.5505 60.015 65.5556 58.8 65.5556H53.6667V62.5926H69.8C71.015 62.5926 72 61.5977 72 60.3704V32.2222ZM58.8 67.037C59.205 67.037 59.5333 67.3687 59.5333 67.7778V68.5185H40.4667V67.7778C40.4667 67.3687 40.795 67.037 41.2 67.037H58.8ZM48.5333 65.5556H52.2V62.5926H48.5333V65.5556ZM70.5333 58.1481V60.3704C70.5333 60.7794 70.205 61.1111 69.8 61.1111H30.2C29.795 61.1111 29.4667 60.7794 29.4667 60.3704V58.1481H70.5333ZM70.5333 56.6667V35.9874H29.4667V56.6667H70.5333ZM70.5333 32.2222V34.5059H29.4667V32.2222C29.4667 31.8131 29.795 31.4815 30.2 31.4815H69.8C70.205 31.4815 70.5333 31.8131 70.5333 32.2222ZM31.6667 38.8889C31.2617 38.8889 30.9333 38.5572 30.9333 38.1481C30.9333 37.7391 31.2617 37.4074 31.6667 37.4074H33.8667C34.2033 37.4075 34.4965 37.639 34.578 37.9689L35.172 40.3704H46.3333C46.3827 40.3704 46.4319 40.3754 46.4802 40.3854C46.877 40.4671 47.133 40.8584 47.052 41.2593L45.5853 48.6667C45.5157 49.0116 45.2152 49.2594 44.8667 49.2593H36.0667C35.7179 49.2597 35.417 49.0119 35.3473 48.6667L33.2939 38.8889H31.6667ZM35.4939 41.8519H45.4387L44.2661 47.7778H36.6673L35.4939 41.8519ZM37.5333 50C38.7484 50 39.7333 50.9949 39.7333 52.2222C39.7333 53.4495 38.7484 54.4444 37.5333 54.4444C36.3183 54.4444 35.3333 53.4495 35.3333 52.2222C35.3333 50.9949 36.3183 50 37.5333 50ZM38.2667 52.2222C38.2667 52.6313 37.9383 52.963 37.5333 52.963C37.1284 52.963 36.8 52.6313 36.8 52.2222C36.8 51.8131 37.1284 51.4815 37.5333 51.4815C37.9383 51.4815 38.2667 51.8131 38.2667 52.2222ZM44.1333 50C45.3484 50 46.3333 50.9949 46.3333 52.2222C46.3333 53.4495 45.3484 54.4444 44.1333 54.4444C42.9183 54.4444 41.9333 53.4495 41.9333 52.2222C41.9333 50.9949 42.9183 50 44.1333 50ZM44.8667 52.2222C44.8667 52.6313 44.5383 52.963 44.1333 52.963C43.7283 52.963 43.4 52.6313 43.4 52.2222C43.4 51.8131 43.7283 51.4815 44.1333 51.4815C44.5383 51.4815 44.8667 51.8131 44.8667 52.2222ZM50.7333 41.1111C50.3284 41.1111 50 40.7794 50 40.3704C50 39.9613 50.3284 39.6296 50.7333 39.6296H63.9333C64.3383 39.6296 64.6667 39.9613 64.6667 40.3704C64.6667 40.7794 64.3383 41.1111 63.9333 41.1111H50.7333ZM66.1333 40.3704C66.1333 40.7794 66.4617 41.1111 66.8667 41.1111H68.3333C68.7383 41.1111 69.0667 40.7794 69.0667 40.3704C69.0667 39.9613 68.7383 39.6296 68.3333 39.6296H66.8667C66.4617 39.6296 66.1333 39.9613 66.1333 40.3704ZM50.7333 44.0741C50.3284 44.0741 50 43.7424 50 43.3333C50 42.9243 50.3284 42.5926 50.7333 42.5926H63.9333C64.3383 42.5926 64.6667 42.9243 64.6667 43.3333C64.6667 43.7424 64.3383 44.0741 63.9333 44.0741H50.7333ZM66.1333 43.3333C66.1333 43.7424 66.4617 44.0741 66.8667 44.0741H68.3333C68.7383 44.0741 69.0667 43.7424 69.0667 43.3333C69.0667 42.9243 68.7383 42.5926 68.3333 42.5926H66.8667C66.4617 42.5926 66.1333 42.9243 66.1333 43.3333ZM50.7333 47.037C50.3284 47.037 50 46.7054 50 46.2963C50 45.8872 50.3284 45.5556 50.7333 45.5556H63.9333C64.3383 45.5556 64.6667 45.8872 64.6667 46.2963C64.6667 46.7054 64.3383 47.037 63.9333 47.037H50.7333ZM66.1333 46.2963C66.1333 46.7054 66.4617 47.037 66.8667 47.037H68.3333C68.7383 47.037 69.0667 46.7054 69.0667 46.2963C69.0667 45.8872 68.7383 45.5556 68.3333 45.5556H66.8667C66.4617 45.5556 66.1333 45.8872 66.1333 46.2963ZM50.7333 50C50.3284 50 50 49.6683 50 49.2593C50 48.8502 50.3284 48.5185 50.7333 48.5185H63.9333C64.3383 48.5185 64.6667 48.8502 64.6667 49.2593C64.6667 49.6683 64.3383 50 63.9333 50H50.7333ZM66.1333 49.2593C66.1333 49.6683 66.4617 50 66.8667 50H68.3333C68.7383 50 69.0667 49.6683 69.0667 49.2593C69.0667 48.8502 68.7383 48.5185 68.3333 48.5185H66.8667C66.4617 48.5185 66.1333 48.8502 66.1333 49.2593Z" fill="white"/>
</svg>
