<svg width="100" height="100" viewBox="0 0 100 100" fill="none" xmlns="http://www.w3.org/2000/svg">
<path fill-rule="evenodd" clip-rule="evenodd" d="M50 100C77.6142 100 100 77.6142 100 50C100 22.3858 77.6142 0 50 0C22.3858 0 0 22.3858 0 50C0 77.6142 22.3858 100 50 100Z" fill="#3772F0"/>
<path fill-rule="evenodd" clip-rule="evenodd" d="M49.9709 26.1904C63.0831 26.1904 73.7513 36.8586 73.7513 49.9709C73.7513 63.0831 63.0831 73.7513 49.9709 73.7513C36.8586 73.7513 26.1904 63.0831 26.1904 49.9709C26.1904 36.8586 36.8586 26.1904 49.9709 26.1904ZM49.9709 71.3752C61.7738 71.3752 71.3752 61.7738 71.3752 49.9709C71.3752 38.1679 61.7738 28.5665 49.9709 28.5665C38.1679 28.5665 28.5665 38.1679 28.5665 49.9709C28.5665 61.7738 38.1679 71.3752 49.9709 71.3752ZM57.875 44.1809C57.4095 43.7154 56.6627 43.7154 56.1972 44.1809L47.0807 53.2489L43.7542 49.903C43.2887 49.4374 42.5419 49.4374 42.0764 49.8933C41.6109 50.3491 41.6109 51.1056 42.0667 51.5711L46.2273 55.7608C46.46 55.9936 46.7607 56.1099 47.071 56.1099C47.3717 56.1099 47.6723 55.9936 47.9051 55.7608L57.8653 45.8587C58.3309 45.3932 58.3309 44.6464 57.875 44.1809Z" fill="white"/>
</svg>
