<svg width="100" height="100" viewBox="0 0 100 100" fill="none" xmlns="http://www.w3.org/2000/svg">
<path fill-rule="evenodd" clip-rule="evenodd" d="M50 100C77.6142 100 100 77.6142 100 50C100 22.3858 77.6142 0 50 0C22.3858 0 0 22.3858 0 50C0 77.6142 22.3858 100 50 100Z" fill="#3772F0"/>
<path fill-rule="evenodd" clip-rule="evenodd" d="M63.1449 46.0312C63.1443 45.9934 63.1418 45.9557 63.1374 45.9179L63.1362 45.9067L63.1361 45.9065L63.1353 45.8987L63.1342 45.8899C63.1277 45.844 63.119 45.7982 63.1067 45.753L63.1062 45.7515C63.0947 45.7092 63.08 45.6675 63.0634 45.6263C63.0599 45.6173 63.056 45.6086 63.0521 45.5999L63.0484 45.5915C63.0353 45.5617 63.0208 45.5324 63.005 45.5036C62.9981 45.4909 62.9914 45.4783 62.984 45.4659C62.9822 45.463 62.9806 45.4599 62.979 45.4569C62.977 45.4531 62.975 45.4493 62.9727 45.4456C62.956 45.4189 62.9377 45.3938 62.9192 45.3689C62.9157 45.3642 62.9129 45.3593 62.9094 45.3548C62.8812 45.318 62.8507 45.2838 62.8187 45.2514C62.8128 45.2453 62.8062 45.2396 62.8 45.2337C62.7722 45.2067 62.7435 45.1815 62.7134 45.1578L62.7081 45.1535C62.7023 45.1489 62.6965 45.1444 62.6904 45.1399C62.6502 45.1099 62.6088 45.082 62.5656 45.0578L45.9375 35.5415L55.5114 29.4717L71.5619 38.6572L64.8022 42.9428C64.2746 43.2771 64.1163 43.9788 64.4484 44.5098C64.7805 45.0409 65.4773 45.2004 66.0049 44.8659L74.3599 39.569C74.6958 39.3562 74.8959 38.9813 74.8869 38.5817C74.878 38.1822 74.6614 37.817 74.3163 37.6195L56.0394 27.1597C55.6779 26.9526 55.2324 26.9629 54.8803 27.1859L43.1471 34.6247L43.1399 34.6292L37.2768 38.3464L37.2687 38.3515L25.5276 45.7954C25.1917 46.0082 24.9915 46.3831 25.0006 46.7826C25.0095 47.1822 25.2261 47.5474 25.5712 47.7449L43.8482 58.2047C44.0213 58.3039 44.2137 58.3532 44.4059 58.3532C44.615 58.3532 44.8238 58.2947 45.0072 58.1784L53.3623 52.8814C53.8899 52.5471 54.0482 51.8454 53.716 51.3143C53.3841 50.7832 52.687 50.6237 52.1596 50.9582L44.3762 55.8928L28.3257 46.7071L37.8998 40.6372L55.0183 50.434V63.4092C55.0183 63.8231 55.2417 64.2041 55.6015 64.4041C55.7716 64.4987 55.9594 64.5456 56.147 64.5456C56.3562 64.5456 56.565 64.4871 56.7483 64.3708L62.619 60.6489C62.9472 60.4408 63.1463 60.0778 63.1463 59.6873V46.0509L63.1461 46.0461L63.1456 46.04L63.1456 46.0399L63.1451 46.0339L63.1449 46.0312ZM60.8888 59.0601L57.2756 61.3509V49.773C57.2756 49.3642 57.0576 48.9871 56.7046 48.7851L40.0668 39.2634L43.7703 36.9154L59.8207 46.1009L58.4154 46.9918C57.8878 47.3262 57.7295 48.0279 58.0616 48.5589C58.2761 48.9021 58.6428 49.0899 59.0178 49.0899C59.2233 49.0899 59.4314 49.0334 59.6181 48.915L60.8888 48.1095V59.0601ZM73.1573 42.1912C73.6848 41.8566 74.3817 42.0162 74.7138 42.5473C75.0459 43.0783 74.8876 43.78 74.3601 44.1143L66.005 49.4113C65.8183 49.5297 65.6102 49.5862 65.4048 49.5862C65.0297 49.5862 64.663 49.3983 64.4485 49.0551C64.1164 48.5241 64.2747 47.8224 64.8023 47.4881L73.1573 42.1912ZM53.7159 55.8598C53.384 55.3286 52.6869 55.169 52.1595 55.5036L44.3761 60.4381L26.6866 50.3146C26.145 50.0046 25.4557 50.195 25.1476 50.7409C24.8396 51.2865 25.0291 51.9803 25.5711 52.2904L43.8481 62.7501C44.0212 62.8493 44.2136 62.8987 44.4058 62.8987C44.6149 62.8987 44.8237 62.8401 45.0071 62.7239L53.3622 57.4268C53.8897 57.0925 54.0481 56.3908 53.7159 55.8598ZM73.1573 46.7366C73.6848 46.4021 74.3817 46.5615 74.7138 47.0928C75.0459 47.6238 74.8876 48.3255 74.3601 48.6598L66.005 53.9567C65.8183 54.0751 65.6102 54.1316 65.4048 54.1316C65.0297 54.1316 64.663 53.9438 64.4485 53.6006C64.1164 53.0696 64.2747 52.3679 64.8023 52.0336L73.1573 46.7366ZM53.7159 60.4053C53.384 59.8739 52.6869 59.7145 52.1595 60.049L44.3761 64.9836L26.6866 54.86C26.145 54.55 25.4557 54.7405 25.1476 55.2864C24.8396 55.832 25.0291 56.5257 25.5711 56.8358L43.8481 67.2956C44.0212 67.3948 44.2136 67.4441 44.4058 67.4441C44.6149 67.4441 44.8237 67.3856 45.0071 67.2693L53.3622 61.9723C53.8897 61.638 54.0481 60.9363 53.7159 60.4053ZM73.1573 51.2821C73.6848 50.9476 74.3817 51.1071 74.7138 51.6382C75.0459 52.1692 74.8876 52.8709 74.3601 53.2053L66.005 58.5022C65.8183 58.6206 65.6102 58.6771 65.4048 58.6771C65.0297 58.6771 64.663 58.4892 64.4485 58.1461C64.1164 57.615 64.2747 56.9133 64.8023 56.579L73.1573 51.2821ZM53.7159 64.9507C53.384 64.4195 52.6869 64.2599 52.1595 64.5945L44.3761 69.529L26.6866 59.4055C26.145 59.0955 25.4557 59.2859 25.1476 59.8318C24.8396 60.3774 25.0291 61.0712 25.5711 61.3813L43.8481 71.841C44.0212 71.9403 44.2136 71.9896 44.4058 71.9896C44.6149 71.9896 44.8237 71.931 45.0071 71.8148L53.3622 66.5178C53.8897 66.1834 54.0481 65.4817 53.7159 64.9507Z" fill="white"/>
</svg>
