<svg width="100" height="100" viewBox="0 0 100 100" fill="none" xmlns="http://www.w3.org/2000/svg">
<path fill-rule="evenodd" clip-rule="evenodd" d="M50 100C77.6142 100 100 77.6142 100 50C100 22.3858 77.6142 0 50 0C22.3858 0 0 22.3858 0 50C0 77.6142 22.3858 100 50 100Z" fill="#4BD964"/>
<path fill-rule="evenodd" clip-rule="evenodd" d="M66.8978 30.1587C66.8977 28.2006 65.3076 26.6076 63.353 26.6076H56.8562C56.5031 25.5603 55.5137 24.8038 54.3506 24.8038H52.5032C51.6692 23.6804 50.3484 23 48.949 23C47.5497 23 46.2287 23.6804 45.3948 24.8037H43.5475C42.3843 24.8037 41.3949 25.5601 41.0418 26.6075H34.5447C32.5901 26.6075 31 28.2006 31 30.1586V68.0375C31 69.9956 32.5902 71.5886 34.5447 71.5886H52.5499C53.0159 71.5886 53.3939 71.2101 53.3939 70.7431C53.3939 70.2762 53.0161 69.8975 52.5499 69.8975H34.5447C33.5209 69.8975 32.6879 69.0631 32.6879 68.0374V30.1587C32.6879 29.133 33.5209 28.2985 34.5447 28.2985H40.903V31.0606C40.903 31.5275 41.2808 31.9061 41.747 31.9061H56.1511C56.6171 31.9061 56.9951 31.5276 56.9951 31.0606V28.2985H63.353C64.3768 28.2985 65.2098 29.133 65.2098 30.1587V54.5094C65.2098 54.9763 65.5876 55.355 66.0538 55.355C66.5199 55.355 66.8978 54.9764 66.8978 54.5094V30.1587ZM55.3072 27.4595V30.215H42.591V27.4563L42.5911 27.453L42.591 27.4514C42.592 26.9236 43.0205 26.4947 43.5475 26.4947H45.8474C46.1479 26.4947 46.4257 26.3347 46.5769 26.0744C47.0802 25.2082 47.967 24.691 48.949 24.691C49.9311 24.691 50.8178 25.2082 51.3212 26.0744C51.4722 26.3346 51.7502 26.4947 52.0506 26.4947H54.3506C54.8769 26.4947 55.3051 26.9228 55.307 27.4497L55.3069 27.453L55.3071 27.4572L55.3072 27.4595ZM52.5497 66.2902C53.0158 66.2902 53.3937 66.6687 53.3938 67.1357C53.3938 67.6027 53.0158 67.9813 52.5498 67.9813H35.4451C34.9789 67.9813 34.6011 67.6026 34.6011 67.1357V31.0606C34.6011 30.5935 34.979 30.215 35.4451 30.215H38.1461C38.6123 30.215 38.9902 30.5935 38.9902 31.0606C38.9902 31.5276 38.6122 31.9061 38.1461 31.9061H36.289V66.2902H52.5497ZM63.2969 31.0606C63.2968 30.5936 62.9188 30.215 62.4527 30.215H59.752C59.2859 30.215 58.908 30.5935 58.908 31.0606C58.908 31.5276 59.2858 31.9061 59.752 31.9061H61.6088V54.5092C61.6088 54.9761 61.9867 55.3548 62.4528 55.3548C62.919 55.3548 63.2969 54.9762 63.2969 54.5092V31.0606ZM65.1535 57.2714C70.5829 57.2714 75 61.6965 75 67.1357C75 72.575 70.5828 77 65.1535 77C59.7241 77 55.3069 72.575 55.3069 67.1357C55.3069 61.6965 59.724 57.2714 65.1535 57.2714ZM73.3121 67.1357C73.3121 71.6425 69.6522 75.309 65.1535 75.309C60.6548 75.309 56.9949 71.6425 56.9949 67.1357C56.9949 62.6289 60.6548 58.9624 65.1535 58.9624C69.6521 58.9624 73.3121 62.6289 73.3121 67.1357ZM48.9581 26.6076C49.4242 26.6076 49.8021 26.9861 49.802 27.4531C49.802 27.9201 49.424 28.2986 48.958 28.2986C48.4918 28.2986 48.1095 27.92 48.1095 27.4531C48.1095 26.9861 48.483 26.6076 48.949 26.6076H48.9581ZM70.2515 65.028C70.5811 64.6977 70.5811 64.1623 70.2516 63.8322C69.9221 63.502 69.3876 63.502 69.0581 63.8322L63.353 69.5476L60.3487 66.5379C60.0191 66.2077 59.4847 66.2077 59.1552 66.5379C58.8256 66.8681 58.8256 67.4035 59.1552 67.7336L62.7563 71.3412C62.921 71.5062 63.1371 71.5888 63.353 71.5888C63.5689 71.5888 63.7849 71.5063 63.9497 71.3412L70.2515 65.028ZM45.2916 41.7006C46.9104 42.1934 48.8926 43.0071 48.8927 45.1242C48.8927 46.6189 47.367 47.8265 45.2916 48.087V48.1963C45.2916 48.6633 44.9138 49.0418 44.4476 49.0418C43.9814 49.0418 43.6036 48.6632 43.6036 48.1963V48.087C41.5282 47.8264 40.0025 46.6188 40.0025 45.1242C40.0025 44.6572 40.3804 44.2786 40.8465 44.2786C41.3127 44.2786 41.6906 44.6573 41.6906 45.1242C41.6906 45.5673 42.4145 46.1741 43.6036 46.3781V42.9674C41.9848 42.4746 40.0025 41.661 40.0025 39.5438C40.0025 38.0491 41.5282 36.8415 43.6036 36.581V36.4717C43.6036 36.0047 43.9814 35.6262 44.4476 35.6262C44.9138 35.6262 45.2916 36.0048 45.2916 36.4717V36.581C47.367 36.8416 48.8927 38.0492 48.8927 39.5438C48.8927 40.0108 48.5149 40.3894 48.0487 40.3894C47.5825 40.3894 47.2047 40.0107 47.2047 39.5438C47.2047 39.1008 46.4808 38.4939 45.2916 38.2899V41.7006ZM43.6036 38.2911V41.184C42.1798 40.6869 41.6906 40.2387 41.6906 39.5438C41.6906 39.2765 41.926 38.9812 42.3363 38.7338C42.6831 38.5248 43.1231 38.3737 43.6036 38.2911ZM46.5589 45.9342C46.9692 45.6869 47.2047 45.3916 47.2047 45.1242C47.2047 44.4294 46.7154 43.9811 45.2916 43.484V46.3769C45.7721 46.2944 46.2121 46.1432 46.5589 45.9342ZM57.8952 38.2756C57.8952 37.8086 57.5174 37.43 57.0512 37.43H52.5499C52.0838 37.43 51.7059 37.8086 51.7059 38.2756C51.7059 38.7426 52.0837 39.1211 52.5499 39.1211H57.0512C57.5173 39.1211 57.8952 38.7426 57.8952 38.2756ZM55.2507 41.0376C55.7168 41.0376 56.0947 41.4161 56.0947 41.8831C56.0947 42.3501 55.7168 42.7287 55.2507 42.7287H52.55C52.0838 42.7287 51.706 42.3501 51.706 41.8831C51.706 41.4161 52.0839 41.0376 52.55 41.0376H55.2507ZM57.8952 45.4907C57.8952 45.0237 57.5174 44.6451 57.0512 44.6451H52.5499C52.0838 44.6451 51.7059 45.0237 51.7059 45.4907C51.7059 45.9577 52.0837 46.3362 52.5499 46.3362H57.0512C57.5173 46.3362 57.8952 45.9577 57.8952 45.4907ZM42.6471 52.762C43.1132 52.762 43.4911 53.1405 43.4911 53.6076C43.4911 54.0746 43.1132 54.4531 42.6471 54.4531H40.8466C40.3805 54.4531 40.0026 54.0746 40.0026 53.6076C40.0026 53.1405 40.3806 52.762 40.8466 52.762H42.6471ZM43.4911 60.8226C43.4911 60.3556 43.1132 59.977 42.6471 59.977H40.8466C40.3806 59.977 40.0026 60.3556 40.0026 60.8226C40.0026 61.2896 40.3805 61.6681 40.8466 61.6681H42.6471C43.1132 61.6681 43.4911 61.2896 43.4911 60.8226ZM42.6471 56.3696C43.1132 56.3696 43.4911 56.7481 43.4911 57.2151C43.4911 57.6821 43.1132 58.0607 42.6471 58.0607H40.8466C40.3805 58.0607 40.0026 57.6821 40.0026 57.2151C40.0026 56.7481 40.3806 56.3696 40.8466 56.3696H42.6471ZM57.8952 53.6076C57.8952 53.1405 57.5174 52.762 57.0512 52.762H46.2481C45.782 52.762 45.4041 53.1405 45.4041 53.6076C45.4041 54.0746 45.7819 54.4531 46.2481 54.4531H57.0512C57.5173 54.4531 57.8952 54.0746 57.8952 53.6076ZM54.3505 59.977C54.8165 59.977 55.1945 60.3556 55.1945 60.8226C55.1945 61.2896 54.8165 61.6681 54.3505 61.6681H46.2482C45.782 61.6681 45.4042 61.2896 45.4042 60.8226C45.4042 60.3556 45.7821 59.977 46.2482 59.977H54.3505ZM57.8952 57.2151C57.8952 56.7481 57.5174 56.3696 57.0512 56.3696H46.2481C45.782 56.3696 45.4041 56.7481 45.4041 57.2151C45.4041 57.6821 45.7819 58.0607 46.2481 58.0607H57.0512C57.5173 58.0607 57.8952 57.6821 57.8952 57.2151Z" fill="white"/>
</svg>
